<svg xmlns="http://www.w3.org/2000/svg" width="382" height="285" fill="none" viewBox="0 0 382 285">
  <path fill="#E7E8E5" d="M0 250.646h382v-.191H0v.191Zm318.419 12.12h25.305v.192h-25.305v-.192Zm-15.427-7.102h14.662v.191h-14.662v-.191Zm-262.913 1.285h33v.191h-33v-.191Zm39.801 0h4.84v.191h-4.84v-.191ZM33.551.191c-2.3 0-4.17 1.873-4.17 4.174v207.612a4.176 4.176 0 0 0 4.17 4.174H181.08a4.176 4.176 0 0 0 4.169-4.174V4.365A4.176 4.176 0 0 0 181.08.191H33.551ZM181.08 216.342H33.551a4.367 4.367 0 0 1-4.36-4.365V4.365A4.368 4.368 0 0 1 33.55 0h147.53a4.369 4.369 0 0 1 4.36 4.365v207.612a4.367 4.367 0 0 1-4.36 4.365ZM198.802.191a4.176 4.176 0 0 0-4.169 4.174v207.612a4.176 4.176 0 0 0 4.169 4.174h147.527c2.3 0 4.171-1.872 4.171-4.174V4.365a4.177 4.177 0 0 0-4.171-4.174H198.802Zm147.527 216.151H198.802a4.367 4.367 0 0 1-4.36-4.365V4.365A4.368 4.368 0 0 1 198.802 0h147.527a4.37 4.37 0 0 1 4.362 4.365v207.612a4.368 4.368 0 0 1-4.362 4.365Z"/>
  <path fill="#F0F0EE" d="M268.842 58.165h-7.613l-1.05-5.038h7.613l1.05 5.038Zm1.723 8.261h-7.613l-1.051-5.036h7.614l1.05 5.036Z"/>
  <path fill="#747474" d="M339.131 276.338c0 4.783-66.32 8.661-148.131 8.661s-148.131-3.878-148.131-8.661c0-4.783 66.32-8.661 148.131-8.661s148.131 3.878 148.131 8.661Z"/>
  <path fill="#FF0030" d="M258.011 199.027H94.394c-3.7 0-6.946-3.032-7.212-6.736L79.142 80.52c-.266-3.705 2.544-6.736 6.244-6.736h163.617c3.701 0 6.946 3.03 7.213 6.736l8.039 111.771c.266 3.704-2.543 6.736-6.244 6.736Z"/>
  <path fill="#406FBF" d="M258.638 199.027H95.022c-3.701 0-6.947-3.032-7.213-6.736L79.77 80.52c-.267-3.705 2.543-6.736 6.243-6.736H249.63c3.701 0 6.946 3.03 7.213 6.736l8.04 111.771c.265 3.704-2.544 6.736-6.245 6.736Z"/>
  <path fill="#F03D5F" d="M257.059 199.027h-5.276c-.65-2.892-1.122-5.241-1.331-6.752a31.187 31.187 0 0 1-.279-4.266v-.137h4.128c.423 0 .812-.108 1.146-.298.08.69.162 1.372.246 2.044l.002-.009c.228 1.813.47 3.559.727 5.215.202 1.298.415 2.704.637 4.203Zm-24.025 0H95.022c-3.701 0-6.947-3.032-7.213-6.736L79.77 80.52a6.348 6.348 0 0 1-.017-.495c.005-3.476 2.726-6.241 6.26-6.241H219.71a6.095 6.095 0 0 0-.099 1.81c.056.536.193 1.067.386 1.557H86.256c-.185 0-.368.008-.548.023-4.183.344-3.328 6.714.893 6.714h140.176c2.862 1.965 5.804 3.57 8.783 5.095.616.316 1.234.626 1.852.93l-.154 1.158H90.792c-1.347 0-2.36 1.093-2.263 2.441l6.611 91.917c.097 1.349 1.268 2.443 2.615 2.443H230.86c.113 2.197.372 4.259.807 6.139a73.393 73.393 0 0 0 1.367 5.016Zm15.462-113.21c-1.109-.686-2.606-1.348-4.169-1.93h6.17c.448 0 .849-.071 1.201-.2-.243.374-.525 1.118-.641 1.785a96.58 96.58 0 0 0-2.561.345Zm3.955-2.542c2.09-1.605 1.394-5.822-2.027-6.1a6.623 6.623 0 0 0-.552-.024h-21.933a18.74 18.74 0 0 1-1.761-1.442c-.143-.14-.305-.28-.419-.417l-.305-.327c-.067-.067-.076-.075-.09-.075h-.017a.01.01 0 0 1-.007.003c-.055 0-.046-.44.304-1.02.016-.03.034-.06.052-.09h23.934c3.56 0 6.698 2.805 7.17 6.316.036.375.048.746.029 1.106-1.775.5-3.15 1.003-3.393 1.284-.075.088-.138.322-.178.626a11.64 11.64 0 0 0-.807.16Z"/>
  <path fill="#FF829A" d="M249.872 77.151H86.256c-.185 0-.368.008-.548.023-4.183.344-3.328 6.714.893 6.714h163.895c4.222 0 4.16-6.37-.072-6.714a6.623 6.623 0 0 0-.552-.023Z"/>
  <path fill="#FAFAF9" d="M90.517 80.52a1.418 1.418 0 0 1-1.431 1.544 1.685 1.685 0 0 1-1.654-1.544 1.417 1.417 0 0 1 1.432-1.544c.852 0 1.592.691 1.653 1.544Zm5.247 0a1.418 1.418 0 0 1-1.431 1.544 1.685 1.685 0 0 1-1.654-1.544 1.416 1.416 0 0 1 1.431-1.544c.852 0 1.593.691 1.654 1.544Zm5.248 0a1.418 1.418 0 0 1-1.432 1.544 1.685 1.685 0 0 1-1.653-1.544 1.416 1.416 0 0 1 1.43-1.544c.852 0 1.593.691 1.655 1.544Z"/>
  <path fill="#fff" d="M254.3 187.872H97.754c-1.347 0-2.517-1.094-2.614-2.443l-6.612-91.917c-.097-1.348.917-2.441 2.264-2.441h156.546c1.347 0 2.518 1.093 2.615 2.441l6.611 91.917c.097 1.349-.916 2.443-2.264 2.443Z"/>
  <path fill="#fff" d="m194.57 153.796-2.967-41.23-8.986-5.414h-24.72l3.355 46.644h33.318Z"/>
  <path fill="#F03D5F" d="M161.653 153.365h32.453l-2.916-40.544-8.692-5.238H158.36l3.293 45.782Zm32.916.862h-33.317a.43.43 0 0 1-.43-.4l-3.355-46.644a.43.43 0 0 1 .43-.463h24.72l.223.062 8.986 5.415c.12.072.197.199.208.338l2.965 41.23a.432.432 0 0 1-.43.462Z"/>
  <path fill="#E7E8E5" d="m191.603 112.566-8.986-5.414 3.3 7.173 5.686-1.759Z"/>
  <path fill="#F03D5F" d="m183.595 108.243 2.556 5.559 4.406-1.363-6.962-4.196Zm2.322 6.514a.43.43 0 0 1-.391-.251l-3.3-7.174a.431.431 0 0 1 .614-.55l8.986 5.415a.43.43 0 0 1-.095.781l-5.687 1.759-.127.02Zm-14.074 13.41c.075 1.041-.706 1.885-1.746 1.885s-1.943-.844-2.018-1.885a1.73 1.73 0 0 1 1.747-1.884c1.039 0 1.943.844 2.017 1.884Zm12.213 0a1.73 1.73 0 0 1-1.747 1.885c-1.039 0-1.943-.844-2.017-1.885-.075-1.04.706-1.884 1.746-1.884s1.943.844 2.018 1.884Zm3.445 12.222a.431.431 0 0 1-.429-.401c-.218-3.03-4.965-5.495-10.581-5.495-3.72 0-7.062 1.108-8.718 2.891-.737.793-1.079 1.648-1.014 2.542a.43.43 0 1 1-.859.062c-.081-1.127.348-2.231 1.242-3.192 1.814-1.953 5.397-3.165 9.349-3.165 6.161 0 11.186 2.765 11.44 6.295a.431.431 0 0 1-.399.461l-.031.002Zm-22.594-16.039a.432.432 0 0 1-.316-.725l1.888-2.037a.431.431 0 1 1 .632.587l-1.889 2.037a.43.43 0 0 1-.315.138Zm21.709 0a.433.433 0 0 1-.294-.116l-2.181-2.038a.43.43 0 0 1-.021-.608.43.43 0 0 1 .609-.022l2.181 2.037a.433.433 0 0 1-.294.747Zm-30.092 36.943h2.148l3.098 4.122-.297-4.122h2.168l.536 7.45h-2.168l-3.081-4.091.295 4.091h-2.163l-.536-7.45Zm10.924 3.741c.054.751.233 1.291.536 1.62.302.329.695.493 1.174.493.494 0 .866-.161 1.113-.483.248-.322.342-.899.282-1.732-.051-.702-.229-1.214-.535-1.538-.306-.324-.701-.485-1.185-.485-.463 0-.823.164-1.081.493-.257.329-.358.873-.304 1.632Zm-2.3-.011c-.087-1.216.183-2.164.811-2.841.628-.677 1.546-1.017 2.754-1.017 1.239 0 2.217.334 2.935.999.718.666 1.12 1.599 1.206 2.798.063.871-.032 1.585-.285 2.142a2.827 2.827 0 0 1-1.175 1.302c-.531.309-1.21.464-2.035.464-.839 0-1.544-.133-2.113-.402-.569-.267-1.045-.69-1.429-1.27-.383-.579-.606-1.305-.669-2.175Zm14.599-2.043.294 4.071h.563c.48 0 .818-.053 1.014-.161.195-.106.341-.293.437-.558.096-.266.123-.697.079-1.294-.056-.789-.224-1.329-.502-1.621-.278-.291-.715-.437-1.311-.437h-.574Zm-2.421-1.687h3.417c.674 0 1.224.091 1.652.275a2.92 2.92 0 0 1 1.084.787c.296.343.521.74.675 1.194.155.454.25.935.287 1.444.057.796.011 1.413-.139 1.852a2.772 2.772 0 0 1-.675 1.103 2.238 2.238 0 0 1-.993.592 5.181 5.181 0 0 1-1.355.203h-3.417l-.536-7.45Zm12.04 4.609-1.015-2.678-.619 2.678h1.634Zm.593 1.611h-2.611l-.275 1.23h-2.347l2.261-7.45h2.508l3.332 7.45h-2.408l-.46-1.23Zm1.825-6.22h6.989l.132 1.839h-2.344l.403 5.611h-2.3l-.402-5.611h-2.346l-.132-1.839Zm11.754 4.609-1.014-2.678-.62 2.678h1.634Zm.593 1.611h-2.611l-.274 1.23h-2.348l2.261-7.45h2.508l3.333 7.45h-2.408l-.461-1.23Z"/>
  <path fill="#F89E63" d="M270.218 90.352a72.54 72.54 0 0 0 2.249-1.198 60.89 60.89 0 0 0 2.28-1.319c1.496-.922 3.004-1.834 4.437-2.847 2.889-1.993 5.596-4.204 8.031-6.619.319-.292.591-.616.886-.925l.436-.468.218-.234.109-.117.008-.007-.024.038c-.109.204-.018.142.024-.055.051-.19.094-.5.108-.835.049-1.389-.226-3.139-.557-4.832-.681-3.43-1.71-6.96-2.728-10.416l2.969-1.303c1.858 3.324 3.409 6.719 4.669 10.4.601 1.865 1.153 3.737 1.313 6.038.03.586.043 1.202-.063 1.92-.112.707-.29 1.553-.934 2.512l-.127.176-.099.129-.117.143-.236.287-.472.573c-.318.377-.62.776-.959 1.13a54.32 54.32 0 0 1-8.694 7.764 60.915 60.915 0 0 1-4.8 3.205c-.823.499-1.657.978-2.504 1.443a42.05 42.05 0 0 1-2.649 1.35l-2.774-5.933Z"/>
  <path fill="#406FBF" d="M264.683 269.727c-1.114.222-1.952.184-2.276-.112-.138-.125-.189-.302-.155-.539.018-.128.076-.17.126-.193.392-.177 1.513.364 2.305.844Zm-1.26.447c.591 0 1.237-.123 1.689-.23l.114-.122-.065-.153c-.22-.144-2.163-1.399-2.908-1.062a.517.517 0 0 0-.301.426c-.048.34.036.611.251.807.273.249.727.334 1.22.334Z"/>
  <path fill="#406FBF" d="M263.989 267.351a.49.49 0 0 1 .334.133c.416.368.559 1.403.593 2.017-.608-.486-1.334-1.524-1.246-1.964.015-.073.056-.158.249-.182l.07-.004Zm1.088 2.597.077-.021.075-.131c0-.078-.009-1.922-.705-2.539a.783.783 0 0 0-.641-.202c-.379.045-.483.284-.51.422-.145.722 1.019 2.105 1.63 2.451l.074.02Z"/>
  <path fill="#F89E63" d="M264.514 71.22c-.744 3.802-2.312 11.502.344 14.039 0 0-1.038 3.856-8.094 3.856-7.759 0-3.708-3.855-3.708-3.855 4.235-1.013 4.125-4.158 3.387-7.112l8.071-6.927Z"/>
  <path fill="#17282F" d="M251.573 86.792c-1.218.165-.182-2.994.313-3.321 1.143-.756 15.93-1.828 15.834-.03-.061.772-.424 2.282-1.07 2.794-.257.203-1.008.083-2.483-.038-2.247-.184-6.175-.367-12.594.595Z"/>
  <path fill="#17282F" d="M253.982 85.728c-.967.328-.876-2.855-.546-3.238.762-.886 12.731-3.965 13.087-2.222.137.751.203 2.254-.208 2.836-.411.583-3.927-.38-12.333 2.624Zm-4.452-21.36a.3.3 0 0 1-.253-.11c-.855-1.049-1.967-.942-1.978-.94a.304.304 0 0 1-.065-.604c.058-.006 1.451-.141 2.513 1.16a.303.303 0 0 1-.043.426l-.174.068Z"/>
  <path fill="#F14358" d="M248.049 68.11s-.654 2.3-1.508 3.463c.741.568 1.865.164 1.865.164l-.357-3.626Z"/>
  <path fill="#17282F" d="M248.422 67.182c.051.514-.18.958-.516.991-.336.033-.649-.357-.699-.87-.051-.516.18-.96.516-.992.335-.034.649.356.699.871Z"/>
  <path fill="#17282F" d="m247.874 66.325-1.269-.235s.729.902 1.269.235Z"/>
  <path fill="#F89E63" d="M272.519 269.796h-6.399l.502-14.837h6.399l-.502 14.837Z"/>
  <path fill="#F03D5F" d="M265.613 269.055h7.189c.262 0 .474.182.511.437l.819 5.695c.085.591-.422 1.15-1.026 1.139-2.506-.043-3.714-.19-6.876-.19-1.945 0-4.787.202-7.473.202-2.627 0-2.829-2.659-1.711-2.9 5.015-1.08 5.807-2.569 7.497-3.989a1.664 1.664 0 0 1 1.07-.394Z"/>
  <path fill="#C3C5C2" d="M272.767 262.611h-.005l.05-1.48h.004l-.049 1.48Z"/>
  <path fill="#DC834C" d="M272.762 262.611h-6.397l.049-1.48h6.398l-.05 1.48Z"/>
  <path fill="#F89E63" d="M247.057 94.15a125.402 125.402 0 0 1-11.498-5.167c-3.755-1.923-7.452-3.973-11.005-6.71a25.306 25.306 0 0 1-2.614-2.349c-.213-.23-.426-.441-.635-.705-.22-.277-.386-.44-.672-.865a6.098 6.098 0 0 1-1.022-2.76 6.23 6.23 0 0 1 .375-2.77 8.374 8.374 0 0 1 1.075-1.993c.803-1.121 1.692-1.949 2.589-2.693 1.79-1.483 3.683-2.562 5.58-3.57a37.673 37.673 0 0 1 2.891-1.374c.982-.425 1.941-.82 2.984-1.179l1.356 2.947c-3.332 2.103-6.784 4.414-9.322 7.006-.616.642-1.156 1.314-1.496 1.905-.362.602-.359 1.053-.296 1.017.031 0 .018-.013.107.075l.305.327c.114.137.276.277.419.417a19.501 19.501 0 0 0 2.063 1.659c1.516 1.08 3.187 2.092 4.915 3.036 1.723.958 3.494 1.874 5.298 2.744a224.47 224.47 0 0 0 10.996 4.904l-2.393 6.097Z"/>
  <path fill="#F89E63" d="m238.344 62.873 1.058-2.297-4.81-1.672s-1.498 4.515.288 6.598a4.614 4.614 0 0 0 3.464-2.628Z"/>
  <path fill="#F89E63" d="m239.402 55.609-3.845-1.11-.965 4.405 4.81 1.672v-4.967Zm49.657 5.189.56-5.369-4.956 1.166s-.073 5.034 2.549 5.836l1.847-1.633Z"/>
  <path fill="#F89E63" d="m287.232 51.67-3.23 1.51.661 3.415 4.956-1.166-2.387-3.759Zm-21.711 12.046c.233 6.354.467 9.039-2.401 12.594-4.313 5.349-12.161 4.246-14.285-1.91-1.912-5.542-1.972-15.003 3.956-18.124 5.841-3.076 12.497 1.086 12.73 7.44Z"/>
  <path fill="#17282F" d="M262.756 76.299c6.231-2.697 10.329-8.38 8.598-17.268-1.654-8.501-7.388-9.342-9.757-7.578-2.368 1.765-8.271-.865-11.814 2.12-6.138 5.172-.335 10.746 2.688 14.05 1.806 3.716 4.171 11.32 10.285 8.676Z"/>
  <path fill="#F03D5F" d="M260.169 57.506c2.101 3.048 6.135 3.909 9.007 1.922 2.872-1.986 3.496-6.066 1.395-9.114-2.103-3.048-6.136-3.908-9.009-1.922-2.872 1.986-3.496 6.066-1.393 9.114Z"/>
  <path fill="#17282F" d="M255.315 53.985c-2.956-1.544-7.962-2.792-10.811 2.007-1.347 2.269-.825 5.346-.825 5.346l8.701.58 2.935-7.933Z"/>
  <path fill="#17282F" d="M242.655 59.832h-.012a.192.192 0 0 1-.179-.203c.009-.13.219-3.207 2.074-5.137 4.484-4.664 9.741-.795 11.245.502a.19.19 0 0 1-.249.29c-1.44-1.242-6.469-4.95-10.72-.527-1.757 1.828-1.966 4.865-1.968 4.896a.19.19 0 0 1-.191.18Z"/>
  <path fill="#F89E63" d="M253.536 67.37c-.01 1.239-.564 2.45-1.266 3.272-1.055 1.236-2.266.627-2.543-.743-.25-1.234-.002-3.363 1.332-4.11 1.315-.736 2.487.166 2.477 1.582Z"/>
  <path fill="#17282F" d="M252.16 125.569s.408 44.473 4.262 69.255c3.113 20.017 8.872 66.307 8.872 66.307h8.727s.853-44.688-.727-64.486c-3.998-50.097 6.319-59.463-2.006-71.076H252.16Z"/>
  <path fill="#17282F" d="M274.022 261.131h-8.728s-.175-1.417-.483-3.861l2.652-1.18-2.666-5.56-1.141-2.38a75.093 75.093 0 0 0-.052-.404l.727-.365s-.559-2.019-1.452-5.295c-1.946-15.136-4.649-35.632-6.457-47.262a179.76 179.76 0 0 1-.727-5.215c1.311-7.303 3.097-21.877 2.329-34.299 3.32-9.908 6.491-19.792 6.755-28.574h7.287c1.937 3.136 2.572 6.214 2.572 10.1 0 4.046-.688 8.971-1.312 15.753-.127 1.373-.25 2.822-.366 4.356a223.997 223.997 0 0 0-.626 16.932c0 6.498.261 14.011.96 22.768.76 9.522.957 24.801.957 38.097 0 5.839-.038 11.295-.083 15.713l-.002.191a1324.74 1324.74 0 0 1-.144 10.485Zm-19.973-88.675a593.51 593.51 0 0 1-.283-4.065v-.002c.09 1.359.184 2.714.283 4.067Z"/>
  <path fill="#627FB7" d="M255.693 189.618c-.084-.672-.166-1.354-.246-2.044l.001-.001c.081.689.163 1.366.247 2.036l-.002.009Z"/>
  <path fill="#A7A9A8" d="M255.446 187.574c-.552-4.744-1.013-9.89-1.397-15.118.384 5.228.846 10.373 1.399 15.117l-.002.001Z"/>
  <path fill="#1B262A" d="M255.695 189.609c-.084-.67-.166-1.347-.247-2.036-.553-4.744-1.015-9.889-1.399-15.117a589.71 589.71 0 0 1-.283-4.067c1.289-4.301 2.788-8.692 4.258-13.079.768 12.422-1.018 26.996-2.329 34.299Z"/>
  <path fill="#FF8EA3" d="M264.101 261.303h11.115l.583-3.903-11.762-.399.064 4.302Z"/>
  <path fill="#406FBF" d="M267.272 88.029c1.046-2.081 6.666-3.391 9.738-3.386l2.3 10.222s-6.12 9.094-8.666 8.13c-3.007-1.137-5.612-10.507-3.372-14.966Z"/>
  <path fill="#F03D5F" d="M272.629 102.45c.728-4.254 1.778-9.336 3.266-15.735 0 0-2.224-.484-5.289-.904 2.078-.746 4.64-1.168 6.387-1.168h.017l2.3 10.222s-3.822 5.679-6.681 7.585Z"/>
  <path fill="#406FBF" d="M257.401 259.98c.262-.43 1.723-.826 2.84-1.031-1.008 1.026-1.895 1.597-2.415 1.544-.181-.019-.321-.114-.427-.291l-.015-.192.017-.03Zm3.393-1.177.004-.15-.156-.079c-.321.048-3.15.498-3.532 1.306a.487.487 0 0 0 .03.478c.155.261.376.408.655.436.927.096 2.265-1.191 2.98-1.967l.019-.024Z"/>
  <path fill="#406FBF" d="m257.803 257.84.12-.138a.793.793 0 0 1 .611-.205c.686.045 1.465.755 1.82 1.117-.905.077-2.373-.198-2.571-.593-.012-.023-.041-.082.02-.181Zm2.991.963.013-.03-.028-.147c-.048-.056-1.181-1.363-2.225-1.432a1.094 1.094 0 0 0-.833.283c-.314.281-.287.526-.209.681.331.657 2.363.885 3.183.714l.099-.069Z"/>
  <path fill="#F89E63" d="m267.463 256.09-5.853 2.602-2.608-5.434-3.408-7.117-.4-.827 5.846-2.607.453.932 3.304 6.891 2.666 5.56Z"/>
  <path fill="#DC834C" d="m259.002 253.258-1.234-2.578 5.722-2.876 1.307 2.726-5.795 2.728Z"/>
  <path fill="#17282F" d="M245.297 125.569s-18.698 46.531-13.63 68.442c4.58 19.803 24.833 57.305 24.833 57.305l7.831-3.935s-12.52-45.271-13.879-55.106c-2.642-19.136 14.345-46.148 14.345-66.706h-19.5Z"/>
  <path fill="#17282F" d="M256.5 251.316s-1.894-3.507-4.654-8.942a545.466 545.466 0 0 1-4.075-8.191c-3.273-6.723-6.945-14.635-10.038-22.238-1.542-3.79-2.941-7.506-4.074-10.955-.818-2.487-1.496-4.836-1.992-6.979-.604-2.61-.87-5.57-.871-8.759-.006-21.153 11.669-52.386 14.072-58.59a.605.605 0 0 0 .3.074h19.611c-.264 8.782-3.435 18.666-6.755 28.574-1.47 4.387-2.969 8.778-4.258 13.079v.002c-2.05 6.844-3.569 13.463-3.593 19.481l-.001.137c0 1.459.089 2.883.28 4.266 1.358 9.835 13.879 55.106 13.879 55.106l-.727.365-.114.058-5.723 2.876-1.267.636Z"/>
  <path fill="#F03D5F" d="m260.566 257.878 5.813-4.236a.506.506 0 0 1 .67.053l4.01 4.122c.415.428.334 1.179-.16 1.525-2.052 1.443-3.116 2.035-5.672 3.897-1.572 1.147-4.706 3.68-6.878 5.263-2.124 1.548-3.851-.483-3.088-1.337 3.42-3.828 4.141-6.194 4.672-8.338.096-.387.324-.724.633-.949Z"/>
  <path fill="#FF8EA3" d="m255.996 252.975 10.108-4.628-1.297-4.124-10.824 4.943 2.013 3.809Z"/>
  <path fill="#406FBF" d="M250.259 87.508c-.839-2.173-8.142-4.557-11.806-5.389l-1.61 12.06s5.983 8.609 8.61 7.897c3.103-.84 6.603-9.913 4.806-14.568Z"/>
  <path fill="#F03D5F" d="M241.905 100.208c-2.505-2.35-5.062-6.028-5.062-6.028l1.61-12.06c2.72.617 7.446 2.09 10.043 3.697-3.434.505-6.258 1.084-6.258 1.084s-.76.268-.761 5.222c0 1.912.114 4.522.428 8.085Z"/>
  <path fill="#406FBF" d="M242.238 86.9s-3.048 1.076 3.059 38.669h25.991c-.436-10.59-.449-17.12 4.607-38.854 0 0-5.446-1.186-11.037-1.456-4.374-.211-7.957-.351-11.802 0-5.069.464-10.818 1.641-10.818 1.641Z"/>
  <path fill="#F03D5F" d="M271.22 123.846h-26.201c-2.825-17.687-3.541-26.913-3.541-31.723 0-4.954.76-5.223.76-5.223s5.749-1.177 10.818-1.64a54.48 54.48 0 0 1 5.02-.214c2.136 0 4.336.095 6.782.213 5.591.27 11.037 1.456 11.037 1.456-1.488 6.4-2.538 11.481-3.266 15.735-.13.758-.249 1.488-.359 2.196-.892 5.735-1.159 9.932-1.159 14.069 0 1.687.044 3.364.109 5.131Z"/>
  <path fill="#406FBF" d="m271.677 124.042 1.172 2.329c.091.181-.123.365-.423.365h-27.258c-.234 0-.428-.115-.443-.262l-.234-2.329c-.016-.162.187-.299.443-.299h26.32c.193 0 .364.08.423.196Z"/>
  <path fill="#FC0000" d="M272.426 126.736h-27.258a.608.608 0 0 1-.3-.074c-.082-.047-.135-.113-.143-.188l-.234-2.329-.001-.02c.001-.153.198-.279.444-.279h26.32c.193 0 .364.08.423.196l1.172 2.329a.19.19 0 0 1 .021.084c.001.15-.191.281-.444.281Z"/>
  <path fill="#17282F" d="M268.142 126.988h.705c.141 0 .247-.072.238-.161l-.331-3.026c-.009-.089-.132-.161-.273-.161h-.704c-.141 0-.248.072-.238.161l.33 3.026c.01.089.133.161.273.161Zm-17.086 0h.705c.141 0 .248-.072.238-.161l-.33-3.026c-.01-.089-.133-.161-.274-.161h-.704c-.141 0-.248.072-.238.161l.33 3.026c.01.089.133.161.273.161Z"/>
</svg>
