<svg xmlns="http://www.w3.org/2000/svg" width="441" height="404" fill="none" viewBox="0 0 441 404">
  <path fill="#FAFAF9" d="M112.132 352.731c.199 0 .361 1.611.361 3.598 0 1.987-.162 3.597-.361 3.597-.2 0-.361-1.61-.361-3.597 0-1.987.161-3.598.361-3.598Zm-1.25-.156c.2 0 .361 1.611.361 3.598 0 1.987-.161 3.597-.361 3.597-.2 0-.361-1.61-.361-3.597 0-1.987.161-3.598.361-3.598Z"/>
  <path fill="#5E5E5E" d="M387.216 302.151c5.42-2.8 11.802-3.163 17.821-2.168 3.233.535 6.603 1.503 8.803 3.934 2.2 2.432 2.617 6.709.09 8.798-1.503 1.243-3.6 1.431-5.55 1.41-4.71-.055-9.938-.885-13.702 1.952-2.147 1.619-3.576 4.31-6.143 5.106-2.512.779-5.346-.706-6.678-2.974-1.331-2.27-1.376-5.106-.756-7.663 0 0 .655-5.575 6.115-8.395m-12.419-23.998c3.314 4.739 9.756 3.17 12.743.278 2.987-2.893 4.249-7.085 5.398-11.084 2.627-9.133 5.274-18.715 3.322-28.017-.584-2.781-1.623-5.553-3.576-7.618-1.952-2.062-4.953-3.29-7.697-2.563-3.248.858-5.267 4.043-6.726 7.071a66.827 66.827 0 0 0-6.593 28.663c-.016 4.617.527 9.458 3.129 13.27m-9.102 6.8c3.599-4.276 4.282-10.512 2.68-15.867-1.601-5.357-5.22-9.914-9.389-13.634a50.559 50.559 0 0 0-16.811-9.93c-2.433-.855-4.995-1.53-7.561-1.285-2.566.244-5.149 1.557-6.347 3.842-1.768 3.379-.072 7.475 1.763 10.818a128.197 128.197 0 0 0 11.042 16.832c3.31 4.272 7.101 8.486 12.145 10.416 5.044 1.93 10.284 1.703 12.958-1.799"/>
  <path fill="#DADBD8" d="M374.573 349.637c.062.003.163-.764.3-2.153l.57-5.877c.275-2.472.635-5.416 1.321-8.62.684-3.196 1.755-6.66 3.13-10.174 1.424-3.491 3.16-6.666 5.19-9.204 2.015-2.55 4.358-4.396 6.561-5.46a18.39 18.39 0 0 1 5.525-1.723c1.373-.14 2.141-.248 2.141-.31.001-.061-.768-.071-2.178-.033-1.397.093-3.448.447-5.762 1.5-2.321 1.03-4.808 2.904-6.922 5.508-2.13 2.592-3.929 5.836-5.378 9.389-1.399 3.575-2.454 7.075-3.108 10.341-.652 3.26-.95 6.236-1.145 8.729a117.083 117.083 0 0 0-.291 5.913c-.031 1.396-.015 2.17.046 2.174"/>
  <path fill="#DADBD8" d="M374.977 345.115c.031-.001.05-.346.058-1l-.008-2.857c-.007-2.48-.005-6.067.128-10.499.219-8.862.981-18.399 2.452-31.846 1.394-12.642 3.266-27.357 5.241-36.925.424-2.175.851-4.134 1.251-5.848.383-1.719.711-3.2 1.025-4.398.273-1.129.493-2.047.668-2.777.143-.638.204-.977.175-.986-.03-.009-.148.313-.347.937l-.829 2.737c-.367 1.188-.744 2.66-1.174 4.371a129.234 129.234 0 0 0-1.383 5.834c-1.954 8.668-4.022 20.784-5.509 34.262-1.475 13.474-2.139 25.744-2.198 34.628a185.85 185.85 0 0 0 .154 10.519l.175 2.856c.05.652.091.994.121.992"/>
  <path fill="#DADBD8" d="M375.036 321.452c.061-.002.051-1.064-.021-2.985-.109-1.918-.372-4.69-.913-8.086-.572-3.388-1.372-7.41-2.627-11.781-.545-1.998-1.823-6.787-4.922-13.941-4.083-9.695-9.628-17.619-14.452-22.529-1.132-1.302-2.393-2.242-3.401-3.163-.522-.442-.983-.883-1.453-1.232l-1.318-.91c-1.589-1.087-2.479-1.66-2.511-1.607-.143.192 3.557 2.372 8.228 7.347 4.652 4.963 10.044 12.834 14.093 22.446 2.257 5.215 3.832 9.865 4.949 13.813 1.291 4.33 2.149 8.311 2.795 11.665.616 3.361.972 6.106 1.187 8.006.178 1.904.305 2.958.366 2.957Z"/>
  <path fill="#5E5E5E" d="m350.605 359.6 2.37 32.483h41.689l2.369-32.483h-46.428Zm-4.027-12.805V359.6h55.429v-12.805h-55.429Z"/>
  <path fill="#F3F2F1" d="M396.258 370.215c.01.009-.056.109-.194.298l-.622.828c-.594.759-1.406 1.8-2.429 3.111l-.109.138-.104-.144-5.966-8.261h.343c-1.774 2.516-3.752 5.318-5.875 8.326l-.184.261-.207-.245-6.966-8.297.402-.005-.384.482-6.228 7.817-.209.261-.19-.272-5.879-8.324.343.017-7.238 8.254-.128.147-.099-.164-2.266-3.813c-.237-.412-.429-.747-.581-1.015-.129-.23-.19-.354-.179-.361.011-.006.094.103.243.321l.643.977c.581.911 1.379 2.167 2.38 3.742l-.226-.018c1.854-2.176 4.271-5.013 7.122-8.356l.179-.211.163.228 5.93 8.286-.399-.011a26202.094 26202.094 0 0 1 6.597-8.311l.199-.249.203.244 6.948 8.313-.39.016c2.143-2.994 4.14-5.781 5.933-8.284l.173-.244.17.244 5.841 8.35-.212-.008 2.526-3.031.676-.784c.157-.174.241-.261.25-.253m1.354-10.831c0 .144-10.446.261-23.328.261-12.887 0-23.331-.117-23.331-.261 0-.143 10.444-.259 23.331-.259 12.882 0 23.328.116 23.328.259Z"/>
  <path fill="#DADBD8" d="M159.933 20.995c-.004.01-.085-.016-.238-.072l-.675-.266-2.574-1.072-9.425-4.04-31.009-13.523-1.075-.472h.223L84.775 14.557l-9.193 3.867c-1.054.43-1.89.77-2.507 1.024-.575.227-.881.339-.888.321-.008-.017.283-.163.844-.424l2.465-1.12 9.124-4.029 30.318-13.161.112-.048.112.048 1.075.472 30.943 13.674 9.354 4.204 2.532 1.167.653.318c.146.074.218.116.214.125"/>
  <path fill="#575757" d="M9.142 165.814h199.165V16.538H9.142v149.276Z"/>
  <path fill="#747474" d="M16.104 159.68H202.09V23.48H16.104v136.2Z"/>
  <path fill="#C4C4C4" d="M64 80s.194 22.864 1.355 29.839l28.648-1.356S91.487 86.007 92.455 80H64Z"/>
  <path fill="#fff" d="m78.11 83.233.105-.011.31-.012c.271-.02.674 0 1.192.059.513.081 1.144.22 1.821.542.675.32 1.374.843 1.982 1.57.587.739 1.125 1.657 1.374 2.761.237 1.106.116 2.347-.3 3.544-.204.6-.48 1.192-.805 1.77-.323.578-.648 1.159-.917 1.788-.541 1.252-.97 2.63-1.159 4.07l-.012.095-.093.001c-.904.016-1.86.031-2.829.046a1513 1513 0 0 1-2.966.047l-.105.002-.004-.107c-.049-1.443-.696-2.756-1.376-3.92-.344-.587-.72-1.138-1.072-1.695-.345-.547-.733-1.071-1.007-1.643-.565-1.141-.662-2.405-.449-3.492.205-1.092.567-2.08 1.105-2.859a5.529 5.529 0 0 1 1.865-1.68 7.021 7.021 0 0 1 1.759-.681c.503-.12.901-.168 1.17-.19.135-.008.238-.014.307-.012l.105.007-.104.013-.304.032a8.7 8.7 0 0 0-1.154.225 7.144 7.144 0 0 0-1.723.704 5.454 5.454 0 0 0-1.803 1.664c-.514.758-.863 1.735-1.056 2.804-.2 1.067-.098 2.28.453 3.381.268.553.648 1.062 1.004 1.621.35.548.731 1.105 1.08 1.696.69 1.176 1.36 2.507 1.413 4.021l-.108-.105 2.967-.048 2.829-.045-.105.097c.196-1.48.631-2.861 1.183-4.131.273-.635.61-1.233.932-1.803a10.34 10.34 0 0 0 .798-1.736c.414-1.17.535-2.374.315-3.445-.232-1.067-.754-1.981-1.32-2.706a5.891 5.891 0 0 0-1.92-1.56 6.59 6.59 0 0 0-1.783-.566c-.51-.07-.91-.102-1.181-.096l-.308-.008-.105-.009"/>
  <path fill="#fff" d="m79.58 99.161-.018-.09-.043-.266c-.036-.238-.09-.582-.156-1.023-.13-.89-.32-2.18-.448-3.783-.03-.401-.058-.822-.074-1.26-.015-.44-.034-.897-.008-1.37.026-.475.103-.972.323-1.436.219-.457.584-.885 1.093-1.095a1.457 1.457 0 0 1 1.558.297c.205.2.342.487.335.786a1.394 1.394 0 0 1-.293.82 1.864 1.864 0 0 1-.69.558 3.597 3.597 0 0 1-.85.282c-.587.125-1.194.192-1.808.212-.616.013-1.224.002-1.82-.089a3.443 3.443 0 0 1-.862-.25 2.235 2.235 0 0 1-.722-.513c-.2-.216-.353-.48-.415-.767a1.298 1.298 0 0 1 .101-.85c.124-.257.333-.478.6-.584.266-.107.568-.076.815.038.25.116.456.302.608.519.153.22.244.466.305.713.117.5.114.994.144 1.464l.137 2.626.192 3.803.048 1.035.01.268v.092l-.01-.09-.018-.27-.065-1.033-.22-3.801-.147-2.627c-.032-.47-.032-.963-.147-1.447a2.063 2.063 0 0 0-.294-.687 1.464 1.464 0 0 0-.577-.49.956.956 0 0 0-.75-.035 1.073 1.073 0 0 0-.554.543 1.22 1.22 0 0 0-.094.794c.06.27.203.52.395.726.385.424.954.645 1.535.735.584.09 1.193.101 1.802.087.61-.018 1.211-.086 1.792-.208a3.62 3.62 0 0 0 .831-.275c.258-.127.491-.303.658-.53a1.32 1.32 0 0 0 .277-.77 1.002 1.002 0 0 0-.308-.724 1.378 1.378 0 0 0-1.47-.282c-.482.197-.838.61-1.052 1.052-.214.45-.292.939-.32 1.405-.026.47-.009.927.003 1.364.014.439.04.859.069 1.259.12 1.603.301 2.892.419 3.783l.14 1.026.034.267.009.091"/>
  <path fill="#fff" d="M75.808 99.312c.015.014.038.356.075.954l.127 2.484-.023-.061 1.928 2.225-.099-.042 2.23-.126-.094.047 1.11-1.357.557-.678-.03.087-.085-3.677.122.116-4.165.046-1.204-.001c-.283-.003-.44-.007-.45-.017-.008-.009.13-.021.398-.037.347-.019.734-.04 1.176-.062l4.24-.166.118-.005.003.12.11 3.675.002.049-.031.039-.556.679-1.114 1.355-.037.045-.056.003-2.23.109-.062.002-.038-.045-1.893-2.256-.022-.028v-.033l-.025-2.548c0-.592.004-.909.018-.896"/>
  <path fill="#fff" d="M81.563 102.542c-.003.007-.078-.028-.211-.089a6.135 6.135 0 0 0-.58-.229 5.706 5.706 0 0 0-2.013-.307c-.8.023-1.508.227-1.991.428a6.37 6.37 0 0 0-.564.265c-.13.069-.202.108-.206.102a1.111 1.111 0 0 1 .19-.133 4.67 4.67 0 0 1 .555-.291 5.378 5.378 0 0 1 2.014-.46 5.376 5.376 0 0 1 2.037.337c.248.094.443.185.573.257.13.07.198.115.196.12m-.001-.893a1.218 1.218 0 0 1-.211-.09 6.541 6.541 0 0 0-.579-.228 5.73 5.73 0 0 0-2.013-.308 5.751 5.751 0 0 0-1.992.429 6.654 6.654 0 0 0-.564.265c-.13.069-.202.108-.205.102a1.074 1.074 0 0 1 .188-.132 4.52 4.52 0 0 1 .556-.292 5.358 5.358 0 0 1 4.051-.124c.249.094.443.186.573.258.13.07.198.115.196.12"/>
  <path fill="#fff" d="M81.51 100.8c-.004.006-.078-.029-.212-.089a6.629 6.629 0 0 0-.579-.23 5.776 5.776 0 0 0-2.013-.307 5.776 5.776 0 0 0-1.992.43 6.51 6.51 0 0 0-.564.264c-.13.069-.202.107-.205.102a.986.986 0 0 1 .189-.132c.125-.079.314-.183.555-.292a5.396 5.396 0 0 1 2.014-.461 5.39 5.39 0 0 1 2.037.337c.249.094.443.187.573.257.13.071.2.117.197.121"/>
  <path fill="#C5C5C5" d="M28 34s.194 22.864 1.355 29.839l28.648-1.356S55.486 40.006 56.455 34H28"/>
  <path fill="#fff" d="M52.137 43.603c.01.155-4.287.54-9.595.86-5.31.32-9.62.453-9.63.298-.009-.155 4.287-.54 9.596-.86 5.308-.32 9.62-.453 9.629-.298Zm.008 4.843c.009.155-4.288.54-9.595.86-5.31.32-9.62.453-9.63.298-.009-.155 4.286-.54 9.596-.86 5.308-.32 9.62-.453 9.629-.298Zm-4.87 4.755c.01.155-2.435.429-5.46.61-3.024.182-5.483.204-5.493.05-.01-.155 2.435-.43 5.46-.61 3.024-.183 5.484-.205 5.493-.05Z"/>
  <path fill="#C5C5C5" d="M23.923 112.876s.194 22.864 1.355 29.84l28.648-1.357s-2.516-22.476-1.549-28.483H23.923Z"/>
  <path fill="#fff" d="M48.06 122.479c.009.155-4.287.54-9.595.86-5.31.32-9.62.453-9.63.298-.008-.154 4.287-.539 9.597-.859 5.308-.32 9.619-.454 9.628-.299m.008 4.843c.01.155-4.287.54-9.595.86-5.31.32-9.62.453-9.63.298-.01-.155 4.287-.54 9.596-.86 5.308-.319 9.62-.452 9.629-.298Zm-4.87 4.755c.01.155-2.434.429-5.459.611-3.025.183-5.484.204-5.493.049-.01-.155 2.434-.428 5.46-.61 3.024-.182 5.483-.205 5.492-.05"/>
  <path fill="#F3F2F1" d="M175.851 89.422h-27.564V64.278h27.564v25.144Z"/>
  <path fill="#DADBD8" d="M175.851 89.422c-.009-.008-.018-.173-.027-.486l-.027-1.365-.062-5.124-.123-18.169.238.24-27.561.041c-.064.06.529-.53.278-.277v3.401l-.002 3.348-.006 6.487-.025 11.904-.247-.246 19.883.125 5.64.065 1.505.028c.344.01.526.02.536.028.01.01-.155.02-.481.029l-1.457.03-5.586.064-20.04.124-.246.002-.001-.249-.026-11.904-.006-6.487-.002-3.348v-3.401c-.252.249.341-.347.283-.285l27.561.042h.242l-.002.24-.122 18.319-.064 5.071-.026 1.32c-.009.295-.018.442-.027.433"/>
  <path fill="#F3F2F1" d="M175.851 105.999h-27.564V93.365h27.564v12.634Z"/>
  <path fill="#DADBD8" d="M175.852 105.999c-.015-.015-.029-.33-.044-.916l-.051-2.538c-.027-2.228-.065-5.35-.109-9.18l.203.204-27.562.076c-.252.252.339-.342.278-.28v1.655l-.001 1.64-.002 3.218-.011 6.121-.266-.267 19.711.127 5.744.073c.636.015 1.149.025 1.551.034.357.011.547.021.559.033.01.011-.16.021-.495.032l-1.496.034-5.684.073-19.89.128-.266.001v-.268l-.012-6.121-.002-3.218-.001-1.64v-1.654c-.061.059.533-.534.283-.283l27.562.077.207.001-.004.204c-.044 3.882-.082 7.045-.109 9.306a4071.38 4071.38 0 0 1-.051 2.49c-.015.564-.029.852-.042.838"/>
  <path fill="#C1C1C1" d="M143.413 64.35c-10.251 14.175-22.046 27.474-32.298 41.649Z"/>
  <path fill="#DADBD8" d="M111.115 105.999c-.015-.012.078-.172.271-.466l.865-1.27c.758-1.099 1.891-2.663 3.316-4.577 2.845-3.832 6.917-9.017 11.477-14.687 4.563-5.672 8.68-10.812 11.602-14.578l3.456-4.465.949-1.208c.221-.272.347-.41.362-.398.015.011-.078.171-.27.466l-.866 1.27c-.757 1.099-1.891 2.662-3.315 4.576-2.846 3.832-6.918 9.017-11.48 14.69-4.56 5.67-8.676 10.81-11.599 14.576a4847.07 4847.07 0 0 0-3.456 4.465c-.378.482-.692.88-.95 1.206-.222.273-.346.411-.362.4Zm78.669-54.221a5.183 5.183 0 0 1-5.18 5.186 5.183 5.183 0 0 1-5.181-5.186 5.183 5.183 0 0 1 5.181-5.186 5.183 5.183 0 0 1 5.18 5.186Z"/>
  <path fill="#4B4B4B" d="M392.449 174.526h-59.704V87.901h59.704v86.625Z"/>
  <path fill="#696969" d="M389.458 174.526h-59.704V87.901h59.704v86.625Z"/>
  <path fill="#616161" d="M382.04 165.144h-44.868V97.283h44.868v67.861Z"/>
  <path fill="#DADBD8" d="M382.04 165.144s-.006-.116-.009-.332l-.009-.962-.017-3.723c-.01-3.252-.024-7.991-.04-13.978l-.075-48.866.15.149-44.862.013h-.006l.163-.162c-.014 25.599-.024 49.204-.034 67.861l-.129-.13 32.658.068 9.022.033 2.368.015c.538.005.82.014.82.014s-.264.01-.791.014l-2.345.014c-2.073.007-5.108.02-8.994.033l-32.738.068h-.129v-.129l-.033-67.861-.001-.163h.169l44.862.014h.148v.149l-.072 48.964c-.016 5.973-.031 10.7-.041 13.945l-.017 3.692-.008.945c-.004.212-.01.315-.01.315"/>
  <path fill="#DADBD8" d="M389.625 87.901c.035.027-.37.619-1.064 1.548-.693.928-1.678 2.19-2.801 3.556a101.271 101.271 0 0 1-2.951 3.434c-.778.86-1.281 1.371-1.313 1.342-.035-.03.407-.595 1.139-1.492l2.874-3.49 2.873-3.493c.738-.89 1.207-1.434 1.243-1.405"/>
  <path fill="#C1C1C1" d="M382.269 164.925a55.521 55.521 0 0 0 7.825 9.797Z"/>
  <path fill="#DADBD8" d="M390.094 174.722c-.03.03-.561-.432-1.365-1.242a43.267 43.267 0 0 1-2.951-3.333 42.901 42.901 0 0 1-2.599-3.616c-.612-.962-.946-1.583-.91-1.606.041-.025.441.553 1.101 1.477.657.924 1.582 2.19 2.662 3.542a80.656 80.656 0 0 0 2.866 3.379c.755.846 1.23 1.366 1.196 1.399"/>
  <path fill="#C1C1C1" d="m329.746 174.458 7.82-9.659Z"/>
  <path fill="#DADBD8" d="M337.566 164.799c.07.057-1.624 2.265-3.783 4.931-2.161 2.668-3.967 4.784-4.037 4.728-.07-.057 1.624-2.264 3.785-4.932 2.159-2.667 3.965-4.783 4.035-4.727m-7.813-76.898c.072-.056 1.772 1.977 3.797 4.542 2.025 2.564 3.611 4.689 3.542 4.744-.072.056-1.771-1.978-3.797-4.543-2.025-2.564-3.611-4.688-3.542-4.743"/>
  <path fill="#C4C4C4" d="M368.061 153.76h-15.024v-42.699h15.024v42.699Z"/>
  <path fill="#17282F" d="M440.996 401.954c0 .146-98.501.266-219.983.266-121.523 0-220.004-.12-220.004-.266 0-.147 98.481-.266 220.004-.266 121.482 0 219.983.119 219.983.266Z"/>
  <path fill="#FAFAF9" d="M120.135 51.003c-16.365 25.77-15.294 61.495 2.587 86.235 11.921 16.492 29.801 27.545 44 42.118 14.198 14.573 24.983 36.047 17.489 54.971-7.628 19.263-29.971 27.1-46.703 39.303-18.225 13.291-31.026 33.821-34.947 56.049-3.921 22.227 1.08 45.905 13.656 64.641h173.799s30.53-58.244-8.722-102.631c-39.254-44.386-60.334-45.113-58.882-74.22 1.455-29.106 21.808-38.565 33.439-49.48 11.631-10.914 68.33-36.382 34.891-116.986H120.135Z"/>
  <path fill="#17282F" d="M120.135 51.004s1.009-.017 2.993-.024l8.809-.024c7.757-.01 19.19-.028 33.915-.049l124.89-.091h.129l.046.116c2.374 6.036 4.774 12.251 6.475 18.839 1.752 6.558 3.185 13.39 3.693 20.47.534 7.067.304 14.364-1.102 21.61-1.451 7.227-4.038 14.385-7.856 21.007-1.899 3.318-4.133 6.468-6.546 9.508-2.441 3.022-5.145 5.862-8.007 8.575-2.865 2.708-5.918 5.259-9.087 7.7-3.163 2.45-6.464 4.764-9.687 7.208-1.615 1.219-3.088 2.586-4.627 3.956a148.73 148.73 0 0 1-4.745 3.924c-3.211 2.571-6.455 5.142-9.517 7.957-6.182 5.536-11.402 12.449-14.274 20.494-1.394 4.014-2.392 8.221-2.718 12.527-.086 1.076-.231 2.149-.271 3.23-.021 1.081-.083 2.164-.031 3.248.014 2.169.258 4.336.652 6.473a29.561 29.561 0 0 0 5.217 11.917c2.568 3.582 5.736 6.737 9.014 9.77 6.599 6.039 13.597 11.803 20.302 18.028a325.389 325.389 0 0 1 19.58 19.591c3.125 3.445 6.305 6.913 9.038 10.758 2.827 3.774 5.2 7.896 7.287 12.161 4.111 8.571 6.651 17.974 7.484 27.59.895 9.615.211 19.413-1.694 29.001a118.839 118.839 0 0 1-3.728 14.229c-1.537 4.676-3.31 9.286-5.517 13.741l-.071.142h-4.64l-169.324-.012h-.137l-.074-.112c-8.281-12.444-13.198-26.74-14.554-41.066-1.441-14.329.762-28.699 6.013-41.453 5.182-12.799 13.24-24.025 22.974-32.849 4.853-4.446 10.264-8.085 15.685-11.451 5.426-3.373 10.898-6.491 16.072-9.904 5.151-3.419 10.116-7.062 14.147-11.519 4.045-4.419 7.135-9.611 8.754-15.191 1.625-5.584 1.64-11.441.69-16.955-.964-5.534-2.91-10.767-5.372-15.587-2.469-4.827-5.463-9.257-8.748-13.302-3.276-4.057-6.918-7.657-10.585-11.057-7.357-6.779-14.887-12.708-21.664-18.802-3.394-3.04-6.612-6.109-9.571-9.262-2.939-3.171-5.626-6.422-7.934-9.79-4.655-6.72-7.847-13.799-9.944-20.632-2.101-6.842-3.144-13.456-3.384-19.541-.142-1.52-.086-3.01-.084-4.465.019-1.453-.025-2.876.125-4.256l.311-4.04c.157-1.304.372-2.567.548-3.799 1.531-9.855 4.5-17.056 6.816-21.665.555-1.171 1.045-2.201 1.573-3.035l1.247-2.129c.67-1.139 1.014-1.708 1.014-1.708l-.984 1.742c-.33.573-.738 1.285-1.223 2.133-.517.83-1 1.863-1.548 3.035-2.288 4.617-5.226 11.816-6.726 21.654-.171 1.23-.383 2.49-.536 3.793l-.301 4.03c-.147 1.377-.1 2.796-.116 4.246.001 1.45-.052 2.938.093 4.453.252 6.069 1.307 12.663 3.413 19.479 2.102 6.808 5.294 13.856 9.94 20.542 2.303 3.352 4.986 6.588 7.92 9.747 2.956 3.14 6.17 6.198 9.563 9.23 6.775 6.077 14.311 11.998 21.69 18.783 3.676 3.399 7.336 7.009 10.631 11.083 3.303 4.058 6.316 8.507 8.803 13.358 2.481 4.847 4.445 10.113 5.422 15.695.964 5.56.954 11.482-.686 17.136-1.634 5.647-4.759 10.9-8.837 15.362-4.064 4.5-9.054 8.164-14.218 11.597-5.188 3.426-10.662 6.55-16.077 9.92-5.411 3.366-10.789 6.987-15.613 11.412-9.679 8.783-17.69 19.956-22.839 32.69-5.216 12.688-7.401 26.974-5.963 41.225 1.354 14.247 6.25 28.461 14.484 40.83l-.21-.113 169.324-.011h4.475l-.235.141c2.181-4.4 3.956-9.009 5.484-13.66a118.724 118.724 0 0 0 3.713-14.165c1.895-9.545 2.576-19.293 1.687-28.851-.827-9.558-3.35-18.896-7.431-27.41-2.072-4.236-4.427-8.331-7.236-12.08-2.713-3.818-5.873-7.266-8.999-10.714a324.666 324.666 0 0 0-19.545-19.564c-6.695-6.22-13.68-11.975-20.298-18.035-3.287-3.045-6.476-6.219-9.08-9.848a30.1 30.1 0 0 1-5.296-12.116c-.4-2.171-.645-4.367-.659-6.557-.051-1.097.01-2.188.033-3.279.041-1.092.185-2.173.273-3.258.33-4.341 1.341-8.589 2.749-12.646 2.905-8.13 8.194-15.118 14.411-20.68 3.081-2.828 6.336-5.406 9.547-7.972a151.014 151.014 0 0 0 4.73-3.91c1.512-1.346 3.026-2.747 4.652-3.972 3.24-2.455 6.534-4.762 9.69-7.204 3.162-2.431 6.204-4.971 9.058-7.666 2.85-2.697 5.54-5.522 7.969-8.524 2.402-3.022 4.624-6.152 6.513-9.447 3.799-6.578 6.372-13.686 7.82-20.868 1.402-7.203 1.636-14.46 1.111-21.498-.5-7.049-1.924-13.859-3.664-20.4-1.69-6.567-4.079-12.77-6.444-18.796l.173.116-124.815-.092-33.941-.048c-3.879-.01-6.839-.02-8.833-.024a292.752 292.752 0 0 1-3.018-.024"/>
  <path fill="#F03D5F" d="M283.807 98.265c25.598 4.212-14.762 49.595-37.607 67.501-13.229 10.37-27.437 21.615-33.718 37.214-7.127 17.697-1.844 37.588-5.299 55.392-.574 2.954-4.938 2.49-4.894-.521.171-11.685-.141-23.365-2.076-34.869-2.743-16.316-9.01-32.458-20.434-44.416-9.325-9.76-21.553-16.247-31.5-25.371-14.523-13.324-29.441-30.506-30.897-50.171 0 0 27.885-22.483 43.363-19.645 18.087 3.316 35.896 31.256 63.923 28.056 19.571-2.234 29.445-18.056 59.139-13.17m2.273 242.906c-.648-6.408-2.354-13.66-8.036-16.683-3.441-1.831-7.632-1.628-11.4-.636-3.77.994-7.312 2.709-11.048 3.819-7.352 2.186-15.406 1.931-22.604-.716-6.946-2.554-12.908-7.171-19.356-10.801-6.45-3.629-13.998-6.333-21.179-4.545-12.38 3.084-18.823 18.005-31.062 21.607-5.441 1.6-11.284.702-16.814-.553-5.531-1.254-11.083-2.863-16.749-2.652-4.44.167-9.06 1.703-12.172 4.749l.032-.042-.089.097a12.66 12.66 0 0 0-1.404 1.648c-3.796 5.065-4.403 11.878-3.236 18.064 1.309 6.927 4.541 13.329 8.01 19.463 4.087 7.227 8.728 14.421 15.484 19.239 5.599 3.993 12.167 3.452 18.969 2.911 3.322-.264 6.701-.528 10.049-.264 23.794 1.88 49.396 3.162 73.193 1.316 12.571-.975 24.354.388 34.328-7.331 7.02-5.431 11.583-13.618 13.784-22.22 2.201-8.603 2.191-17.635 1.3-26.47"/>
  <path fill="#B3B5B3" d="M241.179 328.899h-.008v-.001l.008.001"/>
  <path fill="#CE3148" d="M254.3 393.519c-2.337 0-4.69-1.212-6.595-2.685-5.465-4.221-8.968-10.751-9.986-17.587-1.018-6.835.355-13.926 3.372-20.142 1.635-3.367 3.808-6.924 3.14-10.562l.311-.185 2.474-1.488.637-.399c.141-.091.212-.142.207-.15l-.004-.001a1.29 1.29 0 0 0-.233.105c-.177.095-.394.211-.663.353l-2.52 1.4c-.083.047-.167.095-.254.142l-.028-.129c-.562-2.395-2.313-4.295-3.608-6.386-1.295-2.09-.723-4.847.621-6.906h.009c1.292.245 2.597.324 3.906.324.61 0 1.221-.017 1.832-.043 1.533 2.201 3.459 4.066 5.77 5.435l1.207 22.485 6.156-1.069c-.306 7.391 0 14.806.921 22.146.359 2.854.807 5.763.263 8.588-.545 2.825-2.318 5.61-5.061 6.472a6.255 6.255 0 0 1-1.874.282"/>
  <path fill="#17282F" d="M103.46 402.22s-.478-7.986 9.926-12.43H296.19s9.533 4.829 10.705 12.265l-203.435.165ZM292.316 51.977c-.095.045-.192.09-.29.134l-171.891-1.108s-.61-.39-1.524-1.106c-4.897-3.834-2.149-11.71 4.068-11.66l166.833 1.35c6.887.054 9.031 9.444 2.804 12.39Z"/>
  <path fill="#CE3148" d="M205.166 151.396c-4.349 0-8.697-.738-12.647-2.089-4.582-1.592-8.49-3.834-11.907-6.085-3.427-2.275-6.38-4.519-9.164-6.668-2.773-2.154-5.3-4.23-7.559-6.183-9.028-7.832-13.778-13.589-12.862-14.701.117-.143.317-.212.598-.212 1.983 0 7.972 3.477 16.7 8.847l8.136 5.001c2.92 1.78 6.061 3.744 9.263 5.562 3.213 1.816 6.565 3.469 10.041 4.542a32.014 32.014 0 0 0 11.053 1.304c7.829-.399 15.427-3.162 22.01-6.342 6.617-3.241 12.534-6.908 17.694-9.8 5.154-2.925 9.563-5.086 12.772-6.234 2.027-.728 3.559-1.08 4.496-1.08.548 0 .893.12 1.015.355.347.663-.944 2.099-3.408 4.287-2.473 2.192-6.081 5.199-10.668 8.901-4.613 3.671-10.202 8.098-17.319 12.228a69.977 69.977 0 0 1-11.875 5.455c-2.182.733-4.444 1.414-6.823 1.889a45.117 45.117 0 0 1-7.373.961 38.39 38.39 0 0 1-2.173.062"/>
  <path fill="#F03D5F" d="M202.417 279.699c1.886-.665 4.142 1.235 3.809 3.21-.333 1.973-3.085 3.028-4.649 1.782-1.565-1.248-1.154-4.17.694-4.936"/>
  <path fill="#17282F" d="M140.935 146.089c-.013.012-.221-.2-.607-.613l-1.664-1.827c-.704-.811-1.63-1.748-2.576-2.945l-3.247-4.044c-1.108-1.569-2.366-3.26-3.632-5.132l-1.863-2.97c-.314-.513-.657-1.02-.962-1.559l-.896-1.657c-2.51-4.423-4.744-9.603-6.333-15.262-1.59-5.662-2.336-11.258-2.403-16.354-.005-1.272.065-2.514.094-3.72.027-.602.017-1.198.077-1.78l.183-1.718c.128-1.123.218-2.214.369-3.254l.537-2.972c.292-1.903.795-3.575 1.155-5.058.196-.737.35-1.432.543-2.056l.556-1.7.787-2.346c.185-.534.29-.811.308-.805.017.006-.056.295-.207.84l-.69 2.37a721.1 721.1 0 0 1-.51 1.71c-.179.626-.318 1.322-.5 2.06-.331 1.486-.806 3.155-1.072 5.054-.16.944-.328 1.933-.501 2.962-.139 1.034-.218 2.12-.337 3.237l-.168 1.707c-.055.58-.04 1.171-.064 1.77-.02 1.197-.082 2.429-.072 3.692.095 5.056.849 10.601 2.426 16.217 1.575 5.613 3.779 10.76 6.251 15.171l.882 1.652c.3.538.638 1.045.947 1.559l1.831 2.967c1.243 1.875 2.479 3.571 3.564 5.149l3.176 4.081c.922 1.212 1.824 2.167 2.503 2.998l1.588 1.892c.359.436.541.671.527.684m-9.678 151.66c-.008-.005.056-.118.19-.336l.607-.96 1.003-1.553.643-.989c.251-.338.545-.677.842-1.047l2.001-2.448c.785-.846 1.685-1.722 2.628-2.687 1.936-1.876 4.278-3.876 7.001-5.898 5.413-4.107 12.397-8.188 19.967-12.951 3.756-2.421 7.71-4.971 11.449-8.074 3.744-3.08 7.353-6.632 10.275-10.868 5.762-8.576 8.102-18.51 8.307-27.391.233-8.948-1.669-16.916-3.909-23.268-2.268-6.376-4.867-11.228-6.756-14.501a98.24 98.24 0 0 0-2.254-3.732c-.253-.406-.452-.723-.6-.963-.134-.219-.198-.333-.19-.338.008-.005.087.099.234.308l.646.934a71.442 71.442 0 0 1 2.341 3.686c1.948 3.247 4.608 8.089 6.932 14.479 2.297 6.367 4.252 14.381 4.045 23.406a53.582 53.582 0 0 1-.563 6.886 50.362 50.362 0 0 1-1.493 7.05 48.162 48.162 0 0 1-6.3 13.741c-2.961 4.294-6.612 7.878-10.386 10.975-3.772 3.12-7.745 5.67-11.516 8.084-7.599 4.749-14.586 8.787-20.006 12.839-2.727 1.996-5.073 3.966-7.018 5.81-.948.95-1.854 1.812-2.647 2.644l-2.026 2.405c-.302.364-.601.696-.857 1.027l-.661.972-1.042 1.52-.65.93c-.148.207-.229.312-.237.308Zm-9.484 18.038c.015.009-.063.173-.224.473l-.726 1.299a25.472 25.472 0 0 0-1.111 2.071c-.402.824-.91 1.737-1.341 2.807l-.717 1.659c-.246.579-.447 1.203-.686 1.837-.498 1.26-.885 2.656-1.326 4.113a60.612 60.612 0 0 0-1.781 9.729 60.66 60.66 0 0 0-.018 9.894c.17 1.514.296 2.956.556 4.286.121.667.204 1.316.342 1.931l.404 1.763c.227 1.131.562 2.121.806 3.003.237.887.495 1.633.717 2.239l.478 1.41c.104.324.151.498.133.505-.016.007-.097-.153-.232-.465-.154-.372-.344-.826-.572-1.379a21.394 21.394 0 0 1-.806-2.22c-.274-.88-.635-1.868-.888-3.002l-.441-1.768c-.149-.617-.244-1.271-.374-1.94-.282-1.34-.425-2.793-.61-4.32a57.933 57.933 0 0 1-.023-9.986 57.908 57.908 0 0 1 1.838-9.812c.458-1.467.864-2.87 1.384-4.134.25-.636.462-1.262.72-1.84l.755-1.659c.455-1.069.99-1.976 1.419-2.79a21.81 21.81 0 0 1 1.196-2.037l.813-1.251c.191-.283.299-.427.315-.416m126.087 24.534c.005.008-.066.059-.207.15l-.636.399-2.475 1.488-1.795 1.065c-.668.368-1.421.719-2.215 1.122-1.605.774-3.385 1.76-5.487 2.555l-3.258 1.338c-1.138.456-2.364.809-3.611 1.241-2.483.908-5.23 1.554-8.102 2.304-5.792 1.289-12.273 2.236-19.125 2.455-6.858.14-13.379-.466-19.231-1.452-2.908-.6-5.686-1.102-8.213-1.879-1.267-.365-2.511-.653-3.67-1.049l-3.324-1.167c-2.141-.684-3.97-1.576-5.612-2.265-.815-.361-1.584-.672-2.27-1.005-.673-.351-1.29-.676-1.849-.969l-2.549-1.357-.655-.364c-.146-.084-.219-.132-.213-.14.004-.008.084.024.239.093.183.085.406.188.68.317.632.308 1.497.73 2.59 1.266l1.865.925c.69.318 1.463.615 2.28.961 1.648.663 3.481 1.526 5.621 2.185l3.32 1.128c1.157.383 2.399.661 3.662 1.015 2.52.756 5.287 1.239 8.182 1.822 5.826.954 12.314 1.542 19.133 1.404 6.815-.218 13.261-1.145 19.029-2.402 2.86-.733 5.599-1.36 8.075-2.246 1.244-.419 2.469-.761 3.604-1.205 1.133-.451 2.219-.886 3.258-1.301 2.101-.769 3.887-1.728 5.498-2.474.797-.389 1.555-.725 2.228-1.079l1.813-1.022 2.52-1.4c.269-.142.486-.258.663-.353.152-.076.232-.112.237-.104m10.636-216.053c.006.007-.068.075-.218.203l-.668.551-2.604 2.08c-2.268 1.795-5.548 4.4-9.694 7.502-4.153 3.085-9.185 6.678-15.168 10.038-3.021 1.615-6.239 3.266-9.772 4.5-3.523 1.244-7.309 2.197-11.276 2.511-7.968.539-15.522-1.481-21.666-4.511-3.073-1.541-5.845-3.269-8.368-4.982-2.49-1.759-4.764-3.46-6.775-5.092-4.038-3.243-7.201-5.987-9.399-7.87l-2.519-2.179-.648-.578c-.144-.132-.214-.203-.208-.21.006-.007.088.05.244.168l.68.537 2.584 2.104c2.239 1.833 5.439 4.534 9.499 7.733 2.022 1.61 4.301 3.288 6.791 5.024 2.521 1.687 5.283 3.389 8.334 4.905 6.097 2.976 13.558 4.951 21.412 4.42 3.908-.309 7.649-1.245 11.139-2.47 3.501-1.216 6.702-2.845 9.711-4.44 5.964-3.317 11.007-6.869 15.182-9.911 4.169-3.059 7.483-5.618 9.79-7.363l2.666-2.001.701-.51c.159-.112.243-.166.25-.159"/>
  <path fill="#CE3148" d="M198.947 353.927c-6.092 0-11.888-.563-17.145-1.424-2.895-.583-5.662-1.066-8.182-1.822-1.263-.354-2.505-.632-3.662-1.015l-3.07-1.044c2.51-1.784 5.51-2.392 8.633-2.392 2.856 0 5.814.508 8.596 1.093 4.998 1.051 10.029 2.655 15.079 2.655.986 0 1.973-.061 2.961-.2 4.556-.638 8.738-2.883 13.234-3.858a17.189 17.189 0 0 1 3.615-.391c3.438 0 6.845 1.095 8.719 3.841-2.393.829-5.021 1.433-7.761 2.135-5.768 1.257-12.213 2.184-19.029 2.402a94.59 94.59 0 0 1-1.988.02m-32.229-4.963-.198-.069h.001c.066.022.132.046.197.069Z"/>
  <path fill="#101C21" d="M198.148 354.206c-10.673 0-21.343-1.749-31.43-5.242-.065-.023-.131-.047-.197-.069.122-.094.244-.185.367-.273l3.07 1.044c1.157.383 2.399.661 3.662 1.015 2.52.756 5.287 1.239 8.182 1.822 5.257.861 11.053 1.424 17.145 1.424.659 0 1.322-.006 1.988-.02 6.815-.218 13.261-1.145 19.029-2.402 2.74-.702 5.368-1.306 7.761-2.135l.111.167c-9.567 3.114-19.629 4.669-29.688 4.669"/>
  <path fill="#F03D5F" d="m335.168 321.194-21.963-24.617-.224 29.923 6.611 19.194-65.697 11.406-2.787-51.89-4.729-39.851a10.824 10.824 0 0 1 6.774-11.345l18.08-7.128 25.464 4.677 10.244 3.897a28.08 28.08 0 0 1 11.163 7.772l30.836 35.299-13.772 22.663"/>
  <path fill="#C1C1C1" d="M311.664 290.691c.005-.105 1.445.108 3.71-.261 2.242-.35 5.34-1.448 7.91-3.815 2.566-2.375 3.91-5.377 4.439-7.585.551-2.23.455-3.684.56-3.68.031-.002.083.357.093 1.01.012.654-.052 1.604-.287 2.755-.448 2.282-1.78 5.424-4.445 7.89-2.67 2.461-5.906 3.535-8.216 3.796-1.165.142-2.116.129-2.765.065-.65-.063-1.003-.143-.999-.175"/>
  <path fill="#17282F" d="M313.585 325.226c.153 0 .193-10.366.089-23.15-.105-12.788-.314-23.15-.467-23.148-.154.001-.194 10.366-.089 23.153.104 12.782.313 23.147.467 23.145"/>
  <path fill="#F03D5F" d="m311.178 332.833-39.696-15.997a9.077 9.077 0 0 1-5.657-7.732l-2.905-38.099s.343-16.203-9.767-16.991l-5.753 2.267c-7.434 3.952-9.274 14.786-8.263 23.15 1.438 11.886 2.037 28.706 3.646 39.022 1.317 8.439 6.145 15.86 14.395 18.035l48.895 10.595 5.105-14.25"/>
  <path fill="#17282F" d="M263.489 276.818c.017-.002.06.299.125.872.062.621.147 1.457.255 2.51.202 2.233.487 5.377.839 9.24l1.176 13.708c.109 1.29.219 2.611.334 3.961.118 1.351.2 2.734.507 4.077.29 1.347.937 2.61 1.972 3.571 1.03.964 2.319 1.67 3.663 2.28 10.946 4.742 21.035 8.657 28.358 11.402l8.694 3.207 2.364.872c.539.204.819.32.813.337-.006.018-.298-.064-.848-.235-.592-.193-1.392-.452-2.396-.78a371.93 371.93 0 0 1-8.756-3.048 498.018 498.018 0 0 1-28.449-11.271c-1.366-.622-2.706-1.348-3.805-2.381-1.111-1.025-1.823-2.429-2.117-3.836-.318-1.41-.392-2.803-.506-4.15l-.314-3.964-1.064-13.721-.671-9.253-.157-2.518c-.029-.576-.036-.879-.017-.88m-22.744 20.711c.019-.001.043.175.078.511l.132 1.47c.117 1.358.277 3.185.47 5.407.218 2.28.493 4.994.89 7.993.409 2.994.889 6.297 1.792 9.65.428 1.695 1.028 3.26 1.938 4.602a26.4 26.4 0 0 0 2.965 3.648c2.099 2.149 4.34 3.724 6.353 4.77 4.061 2.113 7.013 2.144 6.972 2.285-.002.018-.179.013-.517-.013a10.611 10.611 0 0 1-1.468-.19c-1.266-.222-3.086-.72-5.159-1.747-2.068-1.02-4.373-2.593-6.529-4.762a26.253 26.253 0 0 1-3.049-3.7c-.949-1.383-1.594-3.055-2.018-4.751-.915-3.405-1.381-6.72-1.765-9.729a165.903 165.903 0 0 1-1.081-13.451c-.014-.59-.024-1.078-.032-1.477-.001-.338.01-.515.028-.516Z"/>
  <path fill="#17282F" d="M257.72 324.188c-.055-.014.115-.865.722-2.117.601-1.251 1.714-2.866 3.333-4.257 1.626-1.383 3.394-2.229 4.721-2.629 1.332-.405 2.196-.439 2.203-.382.016.088-.818.254-2.08.738a15.74 15.74 0 0 0-4.499 2.677 15.789 15.789 0 0 0-3.346 4.031c-.675 1.171-.969 1.969-1.054 1.939"/>
  <path fill="#C1C1C1" d="M265.528 295.214c.005-.007.09.031.252.113l.71.372c.637.301 1.566.772 2.832 1.203 2.496.867 6.407 1.75 11.127.95 4.659-.762 10.077-3.51 13.83-8.6 1.858-2.514 3.295-5.611 3.622-9.004.164-1.686.026-3.442-.53-5.093a10.348 10.348 0 0 0-2.862-4.378c-1.313-1.201-2.946-2.048-4.66-2.267-1.689-.267-3.498.18-4.671 1.314-.565.569-.918 1.331-.91 2.116-.003.782.298 1.555.767 2.183.939 1.285 2.523 1.884 4.039 2.109 3.092.424 6.131-.135 8.676-1.244 2.556-1.115 4.646-2.773 6.15-4.603 1.507-1.837 2.435-3.824 2.991-5.627a17.35 17.35 0 0 0 .756-4.78 18.285 18.285 0 0 0-.224-3.065l-.145-.79c-.031-.178-.042-.271-.034-.273 0 0 .563 1.417.609 4.129a17.007 17.007 0 0 1-.678 4.864 16.643 16.643 0 0 1-2.984 5.779c-1.522 1.89-3.648 3.609-6.264 4.77-2.606 1.154-5.716 1.75-8.927 1.324-1.576-.228-3.306-.85-4.373-2.29-.522-.698-.873-1.568-.874-2.488-.012-.923.408-1.831 1.057-2.482 1.331-1.289 3.297-1.748 5.11-1.47 1.837.234 3.565 1.134 4.945 2.397a10.862 10.862 0 0 1 3.008 4.604c.581 1.736.72 3.564.546 5.311-.348 3.513-1.837 6.681-3.747 9.245-3.86 5.189-9.409 7.951-14.162 8.681a22.152 22.152 0 0 1-11.258-1.128c-2.525-.965-3.724-1.882-3.724-1.882m-26.003-10.161c-.026-.023.197-.32.651-.815a14.9 14.9 0 0 1 2.145-1.867c1.928-1.449 5.119-2.769 8.782-3.113 1.832-.196 3.609-.109 5.175.216 1.57.326 2.919.854 3.989 1.403a17.852 17.852 0 0 1 2.426 1.479c.538.397.815.643.796.671-.055.083-1.243-.815-3.384-1.811-2.118-1.015-5.36-1.861-8.946-1.431-3.591.342-6.686 1.559-8.625 2.896-1.965 1.31-2.937 2.447-3.009 2.372m6.348-27.243c.082-.089 1.02 1.211 3.214 2.339a11.545 11.545 0 0 0 4.09 1.201 10.753 10.753 0 0 0 5.12-.709 10.762 10.762 0 0 0 4.124-3.121 11.563 11.563 0 0 0 2.047-3.743c.755-2.349.5-3.932.622-3.927.027-.003.108.379.132 1.082.028.703-.055 1.734-.396 2.954-.336 1.22-.982 2.617-2.024 3.94a10.918 10.918 0 0 1-4.302 3.307 10.929 10.929 0 0 1-5.377.703c-1.671-.199-3.114-.73-4.213-1.355-1.102-.623-1.889-1.293-2.365-1.811-.48-.515-.693-.842-.672-.86m34.593 62.647c-.017-.003.011-.26.083-.752.113-.481.269-1.21.704-2.057.801-1.712 2.795-3.856 5.942-5.164 3.104-1.395 7.37-1.664 11.671-.418 2.099.624 4.508 1.395 6.082 3.447.77 1.009 1.035 2.511.448 3.737-.563 1.231-1.668 2.08-2.83 2.673a8.996 8.996 0 0 1-3.758.932c-1.278.025-2.611-.294-3.608-1.121-1.008-.814-1.537-2.073-1.616-3.274-.093-1.211.152-2.38.54-3.442 1.692-4.251 5.114-6.954 8.182-8.291 3.121-1.366 5.944-1.51 7.81-1.343 1.878.194 2.851.601 2.851.601-.015.07-1.01-.268-2.868-.394-1.843-.103-4.607.098-7.638 1.479a15.987 15.987 0 0 0-4.456 3.026c-1.391 1.345-2.642 3.067-3.421 5.089-.364 1.014-.586 2.125-.495 3.234.081 1.103.556 2.198 1.441 2.912.874.724 2.076 1.019 3.27.994 1.2-.022 2.419-.335 3.529-.878 1.094-.554 2.104-1.352 2.585-2.415.5-1.054.291-2.306-.388-3.215-.672-.927-1.654-1.596-2.656-2.11-1.008-.509-2.089-.857-3.138-1.171-4.21-1.244-8.347-1.02-11.393.295-3.091 1.235-5.063 3.27-5.904 4.912-.868 1.649-.893 2.734-.969 2.714m-26.43 14.347c-.016-.101 1.514-.23 3.807-1.048 2.279-.799 5.317-2.437 7.803-5.19 2.487-2.753 3.808-5.945 4.374-8.296.583-2.365.557-3.902.659-3.896.032 0 .069.381.056 1.074-.01.69-.099 1.692-.348 2.907-.482 2.419-1.784 5.73-4.346 8.568-2.563 2.836-5.724 4.466-8.078 5.189-1.182.371-2.169.56-2.855.64-.687.082-1.069.084-1.072.052m-12.865-29.615c-.005-.018.159-.085.479-.193.32-.105.796-.252 1.417-.409 1.239-.3 3.088-.712 5.408-.549 1.154.091 2.418.354 3.676.909 1.25.555 2.502 1.426 3.43 2.694.91 1.266 1.468 2.914 1.334 4.633a5.674 5.674 0 0 1-.789 2.486c-.465.756-1.162 1.442-2.08 1.741-.906.284-1.967.14-2.682-.532-.705-.683-.881-1.642-.925-2.474a10.591 10.591 0 0 1 .936-4.728c1.263-2.85 3.611-4.72 5.79-5.499 2.193-.814 4.138-.752 5.398-.535a8.72 8.72 0 0 1 1.436.364c.317.119.48.19.474.208-.017.052-.682-.213-1.939-.368a10.746 10.746 0 0 0-5.235.681c-2.082.797-4.292 2.613-5.477 5.349a10.167 10.167 0 0 0-.863 4.5c.04.782.222 1.601.769 2.119.537.51 1.411.646 2.158.408.755-.243 1.373-.833 1.791-1.512a5.174 5.174 0 0 0 .719-2.252c.133-1.574-.376-3.118-1.213-4.303-.853-1.188-2.025-2.032-3.213-2.579a11.106 11.106 0 0 0-3.528-.937c-2.25-.205-4.086.141-5.33.378-1.246.255-1.929.44-1.941.4"/>
  <path fill="#BA2C42" d="M298.597 327.64a670.05 670.05 0 0 1-6.565-2.523l-11.564-4.66h.001c.056 0 .089-.639.492-1.677 1.883 1.256 3.918 2.313 5.973 3.248 4.03 1.833 7.822 3.521 11.663 5.612m-18.131-7.184-1.043-.42a535.118 535.118 0 0 1-7.063-2.999c-1.344-.61-2.633-1.316-3.663-2.28-1.035-.961-1.682-2.224-1.973-3.571-.306-1.343-.388-2.726-.506-4.077l-.283-3.363a37.266 37.266 0 0 0-.054-.886l-1.099-14.715c1.962 2.552 3.161 5.517 4.126 8.61-1.057-.388-1.852-.789-2.418-1.056l-.71-.372a1.482 1.482 0 0 0-.249-.114l-.003.001s1.113.851 3.452 1.776c1.747 5.681 2.751 11.768 6.264 16.509 1.526 2.058 3.45 3.75 5.577 5.187-.132.402-.209.749-.272 1.019-.07.479-.099.737-.083.751m11.566 4.661a603.05 603.05 0 0 1-12.609-5.081l1.042.42.001.001h.001l11.565 4.66m-11.772-4.169a78.28 78.28 0 0 0-1.289-.436c-2.247-.743-5.116-1.871-7.498-3.305.22.108.443.212.667.314a475.688 475.688 0 0 0 8.12 3.427Z"/>
  <path fill="#0F191D" d="M299.771 328.292c-6.333-2.092-13.12-5.133-19.511-7.344a475.688 475.688 0 0 1-8.12-3.427 25.402 25.402 0 0 1-.667-.314 20.99 20.99 0 0 1-.745-.47c-.011-.237-.03-.363-.049-.363h-.001c-.025 0-.043.1-.064.286-.81-.543-1.539-1.127-2.135-1.745.147-.05.225-.085.22-.112-.001-.014-.048-.022-.135-.022-.053 0-.121.003-.203.01-2.637-2.851-2.221-6.888-2.426-11.045l.283 3.363c.118 1.351.199 2.734.506 4.077.291 1.347.938 2.61 1.973 3.571 1.03.964 2.319 1.67 3.663 2.28a529.476 529.476 0 0 0 7.063 2.999 603.05 603.05 0 0 0 12.609 5.081 670.05 670.05 0 0 0 6.565 2.523c.39.213.782.43 1.174.652"/>
  <path fill="#0F191D" d="m268.479 314.915-.059-.06-.059-.064c.082-.007.15-.01.203-.01.087 0 .134.008.135.022.005.027-.073.062-.22.112Z"/>
  <path fill="#A7A9A8" d="M268.98 296.99c-2.339-.925-3.452-1.776-3.452-1.776l.003-.001c.017 0 .101.039.249.114l.71.372c.566.267 1.361.668 2.418 1.056l.072.235m11.489 23.467h-.003l-.001-.001c-.015-.014.014-.272.084-.751.063-.27.14-.617.272-1.019l.14.094c-.403 1.038-.436 1.677-.492 1.677m-9.741-3.72-.114-.077c.021-.186.039-.286.064-.286h.001c.019 0 .038.126.049.363"/>
  <path fill="#F03D5F" d="M368.749 384.286s33.215 9.203 34.548 9.672c2.001.705 1.664 8.044-1.449 7.929-1.473-.054-25.513.896-28.55.707-3.039-.191-12.202-3.806-12.202-3.806l7.653-14.502"/>
  <path fill="#17282F" d="M382.586 396.973c.166.023.391-1.735 1.463-3.57 1.047-1.851 2.453-2.927 2.348-3.061-.057-.128-1.706.809-2.829 2.784-1.141 1.961-1.123 3.861-.982 3.847Zm-3.463-1.572c.163.028.498-1.544 1.382-3.28.868-1.747 1.93-2.953 1.81-3.067-.091-.109-1.389.978-2.305 2.817-.929 1.83-1.029 3.521-.887 3.53m-3.248-.871c.167-.01.038-1.671.777-3.513.704-1.853 1.924-2.988 1.808-3.109-.067-.127-1.555.901-2.326 2.907-.792 1.996-.395 3.762-.259 3.715"/>
  <path fill="#17282F" d="M376.463 390.235c.06.016.354-.914.357-2.473a11.677 11.677 0 0 0-.831-4.255c-.107-.264-.23-.568-.532-.815-.31-.278-.874-.221-1.141.057-.304.265-.4.64-.442.939a7.346 7.346 0 0 0 .161 2.506 9.914 9.914 0 0 0 1.023 2.543c.774 1.348 1.445 2.038 1.492 2.002.076-.053-.481-.829-1.144-2.185a10.945 10.945 0 0 1-.87-2.472 7.247 7.247 0 0 1-.161-1.519c.015-.51.008-1.149.306-1.394.158-.132.301-.141.44-.038.146.112.269.34.363.581.206.497.373.99.504 1.467.261.957.387 1.846.439 2.596.097 1.506-.055 2.447.036 2.46"/>
  <path fill="#17282F" d="M376.422 389.897c.015-.061-.786-.337-2.141-.346a9.655 9.655 0 0 0-2.358.289c-.431.117-.893.228-1.357.5-.454.232-.931.864-.75 1.52.142.619.671 1.052 1.195 1.187.529.148 1.042.095 1.49-.004.913-.21 1.62-.659 2.159-1.063 1.065-.835 1.584-1.475 1.544-1.521-.058-.07-.687.477-1.769 1.199-.544.348-1.226.725-2.037.882-.405.078-.839.102-1.232-.016-.392-.108-.716-.406-.809-.791-.096-.371.13-.711.493-.927.356-.222.796-.348 1.205-.471.822-.234 1.59-.343 2.238-.391 1.301-.091 2.115.042 2.129-.047m11.267 7.432c.164-.019.002-1.439.656-2.999.621-1.572 1.731-2.475 1.626-2.603-.055-.135-1.445.652-2.141 2.392-.717 1.733-.274 3.268-.141 3.21Zm-23.176 1.535c-.015.035.442.248 1.285.604.853.324 2.103.775 3.696 1.147 3.176.803 7.705 1.257 12.681 1.203 4.978-.055 9.463-.281 12.715-.411l3.85-.205c.909-.06 1.41-.112 1.409-.151-.001-.038-.505-.059-1.416-.065l-3.854.027c-3.364.067-7.801.152-12.707.248-4.953.053-9.427-.335-12.592-1.03-3.174-.652-5.029-1.471-5.067-1.367"/>
  <path fill="#17282F" d="M363.531 399.622c.045.077.953-.456 2.488-1.129 1.517-.651 3.79-1.432 6.285-1.045 2.504.382 4.277 2.065 5.433 3.235 1.165 1.209 1.848 2.014 1.914 1.957.051-.042-.516-.925-1.626-2.225-.559-.643-1.271-1.387-2.201-2.061-.92-.677-2.105-1.253-3.432-1.457-2.677-.41-5.037.485-6.538 1.24-1.524.78-2.357 1.43-2.323 1.485"/>
  <path fill="#F03D5F" d="M333.492 375.106s-31.431 20.601-32.557 21.454c-1.694 1.28.248 7.375 3.181 6.32 1.386-.5 27.76-7.844 30.598-8.948 2.836-1.105 10.469-7.335 10.469-7.335l-11.691-11.491Z"/>
  <path fill="#17282F" d="M324.159 391.4c.137-.028-.421-1.844-2.103-3.367-1.669-1.54-3.526-1.93-3.541-1.791-.059.159 1.608.758 3.165 2.203 1.579 1.421 2.327 3.027 2.479 2.955m2.822-2.55c.133-.052-.476-1.633-1.916-3.094-1.432-1.473-2.997-2.114-3.05-1.983-.081.145 1.296.973 2.652 2.373 1.37 1.385 2.168 2.779 2.314 2.704m2.83-1.817c.144.005-.014-1.8-1.373-3.462-1.343-1.675-3.074-2.202-3.099-2.061-.074.15 1.432.86 2.667 2.413 1.261 1.53 1.643 3.151 1.805 3.11Z"/>
  <path fill="#17282F" d="M327.947 383.12c.083-.04-.348-.89-.711-2.355a13.329 13.329 0 0 1-.37-2.607 12.51 12.51 0 0 1 .035-1.55c.017-.259.065-.514.17-.666.101-.14.24-.173.429-.097.36.142.547.754.716 1.237.16.503.26 1.007.308 1.495.097.978.026 1.873-.08 2.619-.22 1.495-.515 2.402-.427 2.429.057.021.486-.84.814-2.361.158-.759.278-1.69.203-2.732a7.26 7.26 0 0 0-.606-2.436c-.13-.274-.336-.602-.707-.762-.339-.183-.893-.066-1.104.293-.213.327-.236.654-.26.938a11.755 11.755 0 0 0 .5 4.307c.476 1.485 1.038 2.281 1.09 2.248"/>
  <path fill="#17282F" d="M327.884 382.785c.04.081.776-.293 2.043-.602a11.07 11.07 0 0 1 2.25-.307c.427-.009.886-.022 1.291.081.412.095.731.351.752.734.029.394-.191.778-.53.999-.339.233-.761.341-1.17.39-.82.097-1.584-.055-2.208-.221-1.25-.36-2.015-.689-2.051-.604-.023.055.667.507 1.935.98.634.22 1.446.432 2.378.355.457-.042.961-.147 1.421-.448.459-.289.831-.863.779-1.495-.027-.68-.672-1.137-1.175-1.219-.527-.119-1-.084-1.446-.065a9.629 9.629 0 0 0-2.332.441c-1.291.422-1.97.928-1.937.981M308.12 401.73c.037.049.529-.317.769-1.219.263-.879.099-2.23-.589-3.415a12.406 12.406 0 0 0-1.052-1.57c-.344-.457-.701-.869-1.068-1.146-.362-.283-.742-.41-1.003-.421-.263-.011-.398.054-.394.086.001.087.562.045 1.143.635.296.281.589.676.908 1.147.321.469.672.979.98 1.537.636 1.11.825 2.257.689 3.068-.113.815-.457 1.244-.383 1.298Zm11.284-8.438c.146.014.101-1.583-1.107-3.016-1.193-1.447-2.755-1.774-2.766-1.628-.06.154 1.269.677 2.339 1.985 1.095 1.287 1.372 2.691 1.534 2.659"/>
  <path fill="#17282F" d="M341.951 387.708c-.027-.033-.509.321-1.381.949a39.474 39.474 0 0 1-3.876 2.376c-1.69.909-3.776 1.852-6.154 2.744-2.381.888-5.05 1.726-7.873 2.544-5.655 1.631-10.774 3.12-14.467 4.233-1.772.544-3.242.995-4.368 1.342-1.027.329-1.591.528-1.58.565.01.037.594-.092 1.64-.357l4.416-1.172c3.722-1.016 8.855-2.445 14.514-4.075 2.83-.822 5.511-1.68 7.899-2.602 2.388-.923 4.48-1.915 6.164-2.876a30.89 30.89 0 0 0 3.814-2.55c.839-.683 1.275-1.096 1.252-1.121"/>
  <path fill="#17282F" d="M343.117 388.131c.016-.063-.975-.429-2.664-.708-1.659-.262-4.178-.398-6.605.807-1.202.597-2.156 1.505-2.827 2.43-.682.926-1.135 1.852-1.475 2.635-.661 1.574-.934 2.587-.873 2.612.082.033.488-.939 1.23-2.446.746-1.465 1.927-3.608 4.195-4.734 2.261-1.127 4.662-1.074 6.306-.915 1.667.175 2.693.406 2.713.319m55.692-63.265s9.43 3.371 9.469 13.954c.077 20.273-40.92 42.619-40.92 42.619l-54.554-36.184-3.419-1.385s73.645-27.691 89.424-19.004"/>
  <path fill="#33535F" d="M340.439 363.531c.022.032.527-.313 1.421-.965.894-.648 2.17-1.611 3.731-2.82a310.78 310.78 0 0 0 11.945-9.77 311.873 311.873 0 0 0 11.456-10.343c1.43-1.363 2.574-2.48 3.349-3.266.778-.785 1.194-1.232 1.169-1.26-.028-.028-.495.367-1.317 1.104l-3.468 3.133a600.21 600.21 0 0 1-11.551 10.21 602.68 602.68 0 0 1-11.828 9.884l-3.618 2.958c-.852.701-1.314 1.104-1.289 1.135m42.97-31.087c.02-.136-2.414-.374-5.257.478-2.851.83-4.765 2.354-4.675 2.456.091.145 2.079-1.123 4.833-1.923 2.742-.824 5.102-.841 5.099-1.011"/>
  <path fill="#33535F" d="M378.71 329.249c-.049-.132-1.797.638-3.235 2.435-1.452 1.785-1.836 3.658-1.697 3.678.159.055.756-1.646 2.129-3.329 1.354-1.698 2.889-2.64 2.803-2.784"/>
  <path fill="#17282F" d="M401.811 393.439c.028-.064-.652-.195-1.408.427-.742.594-1.373 1.783-1.576 3.17-.205 1.397.105 2.68.497 3.495.386.829.811 1.219.858 1.179.075-.051-.223-.512-.493-1.325a7.099 7.099 0 0 1-.312-3.271c.187-1.273.708-2.375 1.29-2.957.58-.606 1.154-.629 1.144-.718Z"/>
  <path fill="#12769B" d="m386.262 291.748-19.43 49.305-83.664 1.365-1.549-4.532 29.321-1.065 14.092-43.738 61.23-1.335Z"/>
  <path fill="#E7E8E5" d="M347.191 313.093c1.073-.729 3.058-.437 4.022.429.967.867 1.279 2.367.789 3.568-.491 1.202-1.728 2.044-3.022 2.113-1.377.075-2.811-.788-3.196-2.112-.385-1.324.043-3.3 1.407-3.998Z"/>
  <path fill="#17282F" d="M372.525 383.902s-77.08-50.611-80.237-51.663c-3.156-1.054-10.783-6.056-18.41-3.95-7.628 2.106-14.466 8.952-17.886 18.956-1.953 5.716-2.876 15.468-3.308 22.782-.518 8.745 2.187 17.463 7.9 24.098 2.601 3.018 5.808 5.645 9.611 6.829.803.251 1.636.467 2.491.652 14.574 3.164 29.551-3.385 37.738-15.86l1.799-2.741s50.423 18.543 51.212 18.281l9.09-17.384"/>
  <path fill="#33535F" d="M277.164 369.972s.14.071.423.186c.304.122.724.288 1.261.501l4.887 1.884 18.161 6.848a3550.322 3550.322 0 0 0 27.322 10.083c10.368 3.773 21.859 7.915 34.129 12.073l.222.076.11-.209 6.022-11.513 3.069-5.87.119-.226-.215-.136-58.795-37.362-17.661-11.152c-2.07-1.292-3.681-2.3-4.798-2.996l-1.251-.766c-.283-.17-.436-.246-.436-.246s.132.106.406.292c.295.194.701.465 1.224.812 1.105.717 2.698 1.751 4.743 3.081l17.569 11.298 58.699 37.505-.095-.362c-.974 1.864-2.019 3.86-3.071 5.87l-6.018 11.514.333-.133c-12.266-4.148-23.76-8.27-34.139-12.012-10.36-3.775-19.616-7.147-27.361-9.967l-18.217-6.69-4.921-1.793c-.547-.192-.971-.344-1.279-.453-.29-.1-.442-.137-.442-.137"/>
  <path fill="#17282F" d="M285.164 190.247c1.313-3.557 4.218-5.102 7.901-5.993 3.682-.892 7.778.163 10.571 2.726 1.868 1.713 3.238 4.08 5.545 5.127 3.799 1.725 8.669-.795 12.27 1.312 2.132 1.248 3.179 4.087 2.367 6.422-.812 2.335-3.392 3.91-5.838 3.563 2.477 1.171 2.939 4.901 1.233 7.046-1.703 2.145-4.856 2.726-7.49 1.98-2.634-.747-4.823-2.588-6.684-4.597-1.861-2.011-3.491-4.242-5.505-6.097-2.016-1.856-4.53-3.35-7.265-3.452-3.705-.139-7.123 2.354-9.067 5.513-1.944 3.158-2.67 6.903-3.213 10.574-.541 3.67-.949 7.416-2.364 10.845-.166.403-.403.849-.829.938-.616.13-1.066-.553-1.312-1.131a54.503 54.503 0 0 1-4.349-20.73c-.044-4.126.418-7.988 2.978-11.223 2.561-3.235 8.465-5.25 11.051-2.823"/>
  <path fill="#F8A58D" d="m276.472 206.716-5.665 41.219c-.965 7.009 4.127 13.399 11.169 14.016 6.572.577 12.438-4.119 13.33-10.662.424-3.102.783-5.689.847-6.005 0 0 10.619.456 12.803-9.825 1.056-4.969 2.398-15.379 3.502-24.811 1.187-10.13-5.61-19.472-15.6-21.469l-.994-.199c-10.837-1.516-18.177 6.849-19.392 17.736"/>
  <path fill="#F68260" d="M296.2 245.139s-6.612-.772-12.661-6.504c0 0 1.692 8.051 12.152 9.179l.509-2.675"/>
  <path fill="#17282F" d="M308.081 216.951c-.127.783-.895 1.32-1.714 1.201-.817-.118-1.379-.847-1.251-1.63.128-.782.895-1.321 1.713-1.202.82.118 1.38.849 1.252 1.631Zm1.155-1.688c-.22.156-1.168-.892-2.752-1.205-1.577-.334-2.901.248-3.034.02-.067-.103.188-.411.767-.679.571-.268 1.491-.454 2.476-.253.985.202 1.741.732 2.144 1.199.412.471.508.851.399.918m-16.78-.878c-.128.782-.896 1.32-1.715 1.201-.817-.118-1.379-.847-1.25-1.629.127-.783.895-1.321 1.713-1.203.818.118 1.379.849 1.252 1.631Zm1.169-1.937c-.22.156-1.172-.892-2.753-1.205-1.577-.335-2.901.248-3.034.02-.068-.103.185-.412.768-.679.57-.268 1.491-.454 2.475-.253.984.202 1.742.732 2.143 1.198.41.471.507.852.401.919Zm3.398 12.895c.011-.092 1.027-.065 2.662.05.412.039.812.035.934-.227.153-.273.072-.744-.029-1.253l-.582-3.319c-.783-4.716-1.265-8.563-1.075-8.592.19-.031.98 3.769 1.764 8.485.184 1.162.361 2.268.527 3.327.06.49.22 1.065-.108 1.63-.169.28-.51.44-.782.458-.276.027-.503-.014-.706-.041-1.622-.236-2.617-.427-2.605-.518Zm-4.876.164c.26.036-.079 1.757 1.147 3.27 1.223 1.518 3.093 1.692 3.058 1.935.002.112-.474.252-1.251.118-.763-.125-1.822-.591-2.572-1.517-.748-.928-.934-2.003-.852-2.719.079-.733.355-1.12.47-1.087Zm3.126-19.184c-.242.399-1.781-.121-3.683-.269-1.898-.184-3.503.06-3.673-.375-.072-.208.27-.561.958-.857.682-.296 1.719-.5 2.858-.401 1.139.102 2.124.483 2.746.893.626.411.901.818.794 1.009m14.297 4.24c-.35.304-1.365-.287-2.673-.567-1.296-.326-2.469-.242-2.648-.669-.077-.206.171-.532.724-.775.545-.244 1.4-.361 2.295-.154.895.208 1.611.691 1.993 1.151.389.462.467.863.309 1.014"/>
  <path fill="#F8A58D" d="M275.788 214.516c-.16-.111-6.655-3.51-7.837 3.581-1.181 7.092 6.174 6.817 6.22 6.615.046-.201 1.617-10.196 1.617-10.196"/>
  <path fill="#F68260" d="M272.456 221.665c-.029-.028-.139.066-.363.127-.22.058-.58.064-.925-.136-.703-.4-1.135-1.694-.956-2.978.089-.648.326-1.24.64-1.711.301-.484.698-.789 1.086-.793a.638.638 0 0 1 .672.46c.062.214-.007.349.028.366.018.021.172-.093.164-.396a.793.793 0 0 0-.206-.49.933.933 0 0 0-.651-.295c-.552-.053-1.128.367-1.473.884a4.267 4.267 0 0 0-.757 1.905c-.192 1.437.316 2.896 1.291 3.363.477.214.916.132 1.16 0 .248-.137.311-.289.29-.306"/>
  <path fill="#17282F" d="M315.066 208.944c-4.777.3-9.643-1.868-12.616-5.621-2.08-2.628-3.403-6.07-6.349-7.665-1.982-1.073-4.422-1.086-6.569-.403-2.149.683-4.044 2.004-5.74 3.49.944 5.637-1.559 11.216-4 16.383-.269.57-.577 1.182-1.143 1.462-.961.474-2.107-.277-2.682-1.182-.919-1.449-1.027-3.26-.991-4.976.076-3.91.763-7.842 2.348-11.416 1.586-3.574 4.107-6.782 7.406-8.878 4.122-2.619 9.316-3.367 14.089-2.334 4.773 1.031 9.107 3.768 12.352 7.42 1.504 1.695 2.815 3.641 3.327 5.851"/>
  <path fill="#878787" d="M29.657 375.237c-.01-.005.051-.15.178-.431.143-.305.335-.712.578-1.233.491-1.089 1.13-2.74 1.698-4.937 1.124-4.39 1.515-11.098-.145-19.065-.77-3.99-2.015-8.268-3.532-12.806-1.495-4.545-3.232-9.366-4.65-14.58-1.403-5.2-2.51-10.845-2.297-16.763.216-5.929 1.97-11.847 3.898-17.739 1.924-5.901 3.915-11.668 4.511-17.47.675-5.791-.564-11.476-3.2-16.135-2.552-4.707-5.763-8.733-8.167-12.904-2.442-4.156-3.969-8.432-4.91-12.407a46.24 46.24 0 0 1-.31-19.219c.947-4.475 2.003-6.788 2.003-6.788.01.004-.03.156-.119.45l-.405 1.302c-.354 1.143-.812 2.851-1.246 5.081a46.854 46.854 0 0 0 .498 19.075c.96 3.932 2.494 8.15 4.926 12.249 2.398 4.122 5.624 8.132 8.227 12.895 2.69 4.709 3.985 10.579 3.3 16.462-.6 5.9-2.606 11.705-4.526 17.599-1.929 5.887-3.662 11.742-3.88 17.572-.22 5.828.86 11.418 2.24 16.593 1.396 5.187 3.112 10.011 4.589 14.568 1.499 4.551 2.726 8.865 3.475 12.882 1.617 8.027 1.155 14.802-.049 19.207-.609 2.205-1.288 3.852-1.817 4.93l-.634 1.21c-.146.271-.225.407-.234.402"/>
  <path fill="#F03D5F" d="M21.793 245.288s-4.88-15.622 3.875-24.77c.307-.321.848-.17.927.268.468 2.58 1.052 10.439-4.802 24.502Z"/>
  <path fill="#878787" d="M24.718 225.724c.082.016-.058 1.116-.33 2.882l-1.113 6.891-1.093 6.889c-.267 1.765-.427 2.86-.517 2.853-.078-.006-.07-1.117.088-2.904.161-1.785.476-4.241.918-6.936.44-2.696.91-5.124 1.292-6.873.382-1.748.671-2.819.755-2.802Z"/>
  <path fill="#F03D5F" d="M27.526 282.135s2.985-16.094 14.997-20.081a.542.542 0 0 1 .695.672c-.792 2.499-3.947 9.719-15.692 19.409Z"/>
  <path fill="#878787" d="M39.251 266.21c.066.054-.571.961-1.637 2.395l-4.203 5.569-4.185 5.579c-1.06 1.434-1.713 2.326-1.79 2.278-.066-.042.46-1.021 1.435-2.525.976-1.502 2.402-3.525 4.052-5.702a137.86 137.86 0 0 1 4.352-5.469c1.154-1.367 1.91-2.178 1.976-2.125"/>
  <path fill="#F03D5F" d="M24.28 322.51s-1.813-16.268 8.524-23.576c.363-.256.866-.004.86.441-.033 2.622-.957 10.448-9.384 23.135Z"/>
  <path fill="#878787" d="M30.88 303.863c.078.032-.269 1.084-.872 2.767l-2.407 6.552c-.892 2.448-1.698 4.666-2.385 6.555-.6 1.68-.965 2.724-1.051 2.7-.076-.021.143-1.111.64-2.834.497-1.722 1.274-4.072 2.222-6.634a136.31 136.31 0 0 1 2.578-6.498c.708-1.644 1.196-2.639 1.274-2.608"/>
  <path fill="#F03D5F" d="M33.329 363.12s-1.23-16.322 9.362-23.254a.541.541 0 0 1 .843.472c-.127 2.618-1.33 10.406-10.205 22.782Z"/>
  <path fill="#878787" d="M40.591 344.722c.076.035-.307 1.074-.97 2.733l-2.64 6.461-2.619 6.466c-.658 1.658-1.06 2.688-1.146 2.662-.075-.025.183-1.106.74-2.81.56-1.702 1.42-4.024 2.46-6.549a137.078 137.078 0 0 1 2.808-6.403c.766-1.617 1.29-2.595 1.367-2.56Z"/>
  <path fill="#F03D5F" d="M14.78 231.562S.284 223.985 0 211.321c-.01-.446.48-.721.845-.469 2.155 1.492 8.124 6.629 13.934 20.71Z"/>
  <path fill="#878787" d="M3.01 215.67c.07-.046.748.829 1.806 2.269l4.086 5.657 4.101 5.641c1.059 1.436 1.719 2.322 1.65 2.38-.059.052-.84-.739-1.99-2.113-1.149-1.375-2.663-3.332-4.257-5.55a137.068 137.068 0 0 1-3.946-5.77c-.968-1.505-1.52-2.466-1.45-2.514"/>
  <path fill="#F03D5F" d="M30.344 265.114s-14.928-6.683-15.98-19.307c-.037-.443.435-.748.815-.518 2.241 1.357 8.511 6.122 15.165 19.825Z"/>
  <path fill="#878787" d="M17.632 249.967c.067-.052.798.781 1.94 2.154l4.422 5.399 4.435 5.38c1.144 1.369 1.857 2.214 1.793 2.277-.057.054-.884-.687-2.116-1.989-1.23-1.302-2.86-3.164-4.585-5.282a137.561 137.561 0 0 1-4.29-5.518c-1.056-1.444-1.666-2.37-1.599-2.421"/>
  <path fill="#F03D5F" d="M21.754 302.538s-10.249-12.754-5.442-24.472c.17-.412.729-.468.962-.09 1.377 2.23 4.792 9.33 4.48 24.562"/>
  <path fill="#878787" d="M17.33 283.258c.082-.014.354 1.06.746 2.804l1.481 6.821 1.5 6.813c.396 1.739.646 2.816.56 2.843-.075.024-.474-1.015-.979-2.736-.502-1.719-1.106-4.12-1.679-6.792a137.218 137.218 0 0 1-1.308-6.867c-.283-1.768-.405-2.87-.322-2.886"/>
  <path fill="#F03D5F" d="M31.907 346.58s-14.814-6.933-15.653-19.573c-.03-.444.447-.741.823-.505 2.218 1.395 8.408 6.266 14.83 20.078Z"/>
  <path fill="#878787" d="M19.451 331.221c.068-.05.784.794 1.904 2.187l4.33 5.471 4.345 5.456c1.12 1.387 1.82 2.244 1.755 2.305-.058.054-.873-.701-2.083-2.023-1.208-1.324-2.807-3.213-4.496-5.358a136.78 136.78 0 0 1-4.196-5.59c-1.033-1.461-1.627-2.398-1.559-2.448m41.962-48.998c.014.001.02.124.018.359l-.025 1.048-.176 3.968-.775 14.174-.001.015-.003.019c-1.058 5.923-4.071 12.488-8.12 18.862-2.97 4.696-6.081 8.964-8.766 12.935-2.702 3.959-4.982 7.626-6.573 10.875a46.117 46.117 0 0 0-3.074 7.981c-.26.978-.456 1.74-.569 2.262-.122.52-.196.792-.216.788-.021-.004.012-.283.096-.812.073-.532.232-1.304.459-2.298.476-1.978 1.352-4.813 2.916-8.109 1.553-3.301 3.812-7.018 6.494-11.003 2.666-3.999 5.762-8.273 8.716-12.944 4.026-6.343 7.024-12.808 8.12-18.636l-.003.033.994-14.16.32-3.96.105-1.043c.028-.234.05-.355.063-.354"/>
  <path fill="#F03D5F" d="M52.593 319.451s6.273-15.117-1.618-25.02c-.277-.348-.83-.246-.948.182-.7 2.528-1.992 10.3 2.566 24.838"/>
  <path fill="#878787" d="M51.45 299.701c.084-.009.276 1.083.498 2.86.221 1.776.47 4.236.664 6.96.197 2.725.288 5.199.288 6.991-.004 1.793-.097 2.901-.176 2.9-.09-.001-.15-1.105-.257-2.886l-.464-6.961-.486-6.964c-.111-1.783-.15-2.891-.067-2.9"/>
  <path fill="#0F191D" d="M52.669 319.258c-.063-.361-.118-1.339-.202-2.732l-.464-6.961-.486-6.964c-.111-1.783-.15-2.891-.067-2.9.086 0 .277 1.09.498 2.86.221 1.776.47 4.236.664 6.96.197 2.725.288 5.199.288 6.991a31.231 31.231 0 0 1-.075 2.33c-.064.176-.117.316-.156.416"/>
  <path fill="#F03D5F" d="M33.161 355.877s5.029-15.576-3.64-24.806a.541.541 0 0 0-.93.26c-.491 2.576-1.15 10.427 4.57 24.546"/>
  <path fill="#878787" d="M30.423 336.286c.083-.016.363 1.058.727 2.811.365 1.75.812 4.182 1.227 6.882.416 2.699.708 5.16.852 6.946.142 1.788.14 2.899.06 2.903-.09.007-.24-1.089-.49-2.856l-1.027-6.9-1.048-6.901c-.255-1.769-.385-2.869-.301-2.885"/>
  <path fill="#E03B55" d="M33.161 355.877c-4-9.872-4.88-16.68-4.88-20.763 0-1.756.162-3.008.31-3.783a.532.532 0 0 1 .53-.435c.143 0 .288.056.4.175 4.013 4.273 5.09 9.905 5.09 14.723 0 4.352-.878 8.041-1.268 9.46a31.068 31.068 0 0 0-.114-2.329c-.144-1.786-.436-4.247-.852-6.946-.415-2.7-.862-5.132-1.227-6.882-.362-1.741-.64-2.811-.726-2.811h-.002c-.083.016.047 1.116.302 2.885l1.048 6.901 1.027 6.9c.196 1.383.33 2.354.422 2.708-.038.13-.06.197-.06.197"/>
  <path fill="#0F191D" d="M33.221 355.68c-.092-.354-.226-1.325-.422-2.708l-1.027-6.9-1.048-6.901c-.255-1.769-.385-2.869-.301-2.885h.001c.086 0 .364 1.07.726 2.811.365 1.75.812 4.182 1.227 6.882.416 2.699.708 5.16.852 6.946.081 1.026.115 1.83.114 2.329-.05.18-.09.322-.122.426"/>
  <path fill="#F03D5F" d="M60.583 300.977s13.395-9.388 12.044-21.983c-.048-.443-.57-.653-.899-.355-1.944 1.758-7.201 7.623-11.145 22.338"/>
  <path fill="#E03B55" d="M60.583 300.977c3.944-14.715 9.2-20.58 11.145-22.338a.521.521 0 0 1 .355-.139.55.55 0 0 1 .544.494c.064.602.095 1.198.095 1.786.005 11.686-12.14 20.197-12.14 20.197Z"/>
  <path fill="#878787" d="M70.203 283.696c.076.038-.348 1.064-1.113 2.681a137.483 137.483 0 0 1-3.17 6.231c-1.294 2.405-2.542 4.542-3.504 6.054-.964 1.512-1.636 2.397-1.702 2.353-.075-.049.465-1.013 1.33-2.575l3.339-6.124a32437.9 32437.9 0 0 1 3.322-6.136c.863-1.565 1.422-2.521 1.498-2.484"/>
  <path fill="#F03D5F" d="M38.563 340.435s16.157-2.521 20.485-14.425c.152-.418-.224-.837-.65-.714-2.519.719-9.82 3.668-19.835 15.139"/>
  <path fill="#E03B55" d="M38.563 340.435c10.015-11.471 17.316-14.42 19.834-15.139a.54.54 0 0 1 .152-.022.543.543 0 0 1 .499.736c-3.788 10.418-16.636 13.649-19.785 14.294-.319.066-.538.105-.639.121l-.061.01"/>
  <path fill="#878787" d="M54.803 329.164c.051.067-.78.8-2.18 1.916a136.773 136.773 0 0 1-5.586 4.197c-2.22 1.588-4.282 2.955-5.81 3.889-1.53.932-2.523 1.431-2.563 1.362-.046-.077.864-.703 2.327-1.723l5.691-4.027 5.683-4.045c1.463-1.026 2.387-1.635 2.438-1.569Z"/>
  <path fill="#12769B" d="m23.15 370.2-4.714 31.754h29.372L44 370.2H23.15Z"/>
  <path fill="#17282F" d="M45.174 380.039c0 .169-5.303.306-11.843.306-6.543 0-11.845-.137-11.845-.306 0-.168 5.302-.306 11.845-.306 6.54 0 11.843.138 11.843.306Zm.582 2.528c0 .168-5.477.306-12.231.306-6.757 0-12.233-.138-12.233-.306 0-.17 5.476-.307 12.233-.307 6.754 0 12.231.137 12.231.307Z"/>
</svg>
